<?xml version="1.0" standalone="no"?>
<!DOCTYPE svg PUBLIC "-//W3C//DTD SVG 20010904//EN"
 "http://www.w3.org/TR/2001/REC-SVG-20010904/DTD/svg10.dtd">
<svg version="1.0" xmlns="http://www.w3.org/2000/svg"
 width="1280.000000pt" height="1280.000000pt" viewBox="0 0 1280.000000 1280.000000"
 preserveAspectRatio="xMidYMid meet">
<metadata>
Created by potrace 1.14, written by Peter Selinger 2001-2017
</metadata>
<g transform="translate(0.000000,1280.000000) scale(0.100000,-0.100000)"
fill="#000000" stroke="none">
<path d="M6319 12671 c-56 -19 -100 -56 -125 -102 -14 -26 -20 -65 -24 -173
-4 -113 -8 -140 -20 -141 -8 -1 -72 -5 -141 -9 -70 -4 -135 -8 -145 -10 -11
-2 -55 -7 -98 -11 -43 -4 -86 -8 -95 -10 -9 -1 -41 -6 -71 -10 -51 -6 -249
-38 -313 -50 -144 -27 -391 -88 -537 -132 -46 -14 -91 -27 -100 -28 -8 -2 -67
-22 -130 -43 -744 -257 -1403 -636 -1972 -1134 -262 -229 -539 -519 -738 -773
-30 -39 -57 -72 -61 -75 -13 -11 -218 -303 -281 -400 -218 -339 -434 -777
-581 -1180 -79 -215 -186 -590 -222 -780 -3 -14 -7 -36 -10 -50 -5 -23 -17
-92 -30 -165 -2 -16 -7 -39 -9 -51 -2 -12 -7 -45 -11 -74 -4 -29 -8 -60 -10
-69 -15 -81 -43 -386 -49 -526 l-1 -40 -140 -5 c-153 -6 -176 -13 -233 -71
-74 -76 -74 -212 0 -288 56 -57 80 -64 232 -70 l140 -6 2 -30 c1 -16 4 -86 8
-155 3 -69 8 -136 10 -150 3 -14 7 -56 11 -95 11 -127 46 -347 81 -520 19 -93
37 -181 40 -195 3 -14 16 -68 30 -120 133 -506 311 -947 567 -1404 288 -516
669 -1002 1104 -1406 133 -124 163 -151 278 -245 470 -386 980 -688 1545 -915
253 -102 590 -210 760 -246 14 -2 39 -9 55 -14 17 -5 41 -11 55 -14 14 -2 36
-7 50 -10 14 -3 37 -8 53 -10 15 -3 35 -7 45 -10 9 -3 31 -8 47 -11 56 -10
160 -27 180 -30 11 -2 38 -6 60 -9 86 -14 173 -25 245 -31 41 -4 86 -9 100
-11 14 -2 77 -6 140 -9 175 -9 157 8 162 -152 4 -149 13 -181 66 -229 44 -40
79 -54 137 -57 107 -6 206 73 219 175 3 18 5 83 5 143 l1 111 33 0 c56 1 271
14 292 18 11 2 61 7 110 11 50 4 92 8 95 10 3 1 30 6 61 9 31 4 65 8 75 10 11
2 39 7 64 10 108 15 386 72 500 102 52 14 120 32 150 40 30 8 93 27 140 41 47
15 90 27 95 29 31 7 238 83 364 134 574 229 1125 558 1581 944 145 123 149
126 228 201 353 331 641 671 899 1060 97 147 144 222 197 317 14 27 37 67 50
90 42 76 161 311 190 378 16 36 39 88 52 115 187 404 366 1047 429 1535 4 30
9 62 10 71 2 9 6 52 10 95 4 43 9 86 10 94 4 22 18 227 19 287 l1 51 140 4
c150 4 175 11 227 62 80 80 82 217 6 295 -57 58 -80 65 -232 71 l-139 5 -3 35
c-1 19 -5 76 -8 125 -9 144 -33 375 -50 475 -3 14 -7 41 -10 60 -11 73 -57
317 -67 355 -6 22 -13 51 -16 65 -6 35 -49 196 -83 315 -112 384 -295 822
-488 1164 -36 64 -76 136 -90 161 -104 188 -360 549 -543 767 -681 810 -1530
1402 -2529 1764 -309 111 -729 218 -1040 265 -19 3 -46 7 -60 10 -132 22 -427
50 -602 57 -31 2 -59 5 -62 8 -3 2 -6 61 -7 131 -1 99 -5 134 -19 164 -50 105
-157 153 -261 115z m361 -2215 c41 -4 98 -9 125 -11 28 -3 66 -7 85 -10 19 -3
54 -7 77 -10 154 -18 545 -111 715 -171 604 -212 1112 -528 1554 -969 278
-277 476 -533 664 -860 61 -105 202 -391 230 -465 7 -19 19 -48 26 -65 84
-192 212 -672 238 -894 3 -25 8 -63 10 -85 13 -103 17 -137 23 -226 12 -182 6
-550 -12 -685 -2 -16 -6 -55 -10 -85 -12 -106 -17 -136 -41 -265 -218 -1150
-942 -2163 -1969 -2755 -377 -218 -792 -373 -1230 -459 -146 -29 -172 -33
-285 -46 -30 -4 -68 -8 -85 -11 -171 -24 -670 -21 -870 6 -516 69 -872 172
-1290 374 -711 342 -1309 885 -1715 1557 -258 426 -450 933 -525 1389 -3 19
-8 46 -10 60 -29 146 -49 428 -49 670 1 142 12 378 19 390 1 3 6 41 10 85 4
44 8 82 10 85 2 3 6 28 9 55 10 76 44 237 76 367 123 488 370 1002 678 1413
248 330 573 647 917 892 232 166 590 358 867 467 357 139 817 241 1183 262 66
4 121 7 123 9 5 4 383 -3 452 -9z"/>
<path d="M3638 7516 c-1 -2 -47 -6 -102 -10 -54 -3 -101 -8 -105 -10 -3 -2
-22 -7 -42 -10 -103 -16 -279 -98 -357 -168 -227 -199 -254 -532 -62 -763 110
-132 266 -219 595 -332 343 -118 417 -177 418 -332 1 -56 -4 -75 -27 -115 -52
-90 -167 -136 -327 -131 -142 4 -246 38 -313 101 -40 38 -79 129 -84 197 l-4
57 -228 0 -227 0 3 -42 c10 -128 42 -228 105 -325 180 -276 610 -408 1040
-318 212 45 382 162 459 318 88 179 69 432 -43 592 -40 56 -152 159 -207 190
-106 60 -268 130 -390 169 -150 49 -160 52 -274 106 -185 87 -230 247 -105
372 36 36 61 51 114 67 118 37 278 27 365 -22 85 -49 140 -134 143 -223 l2
-44 227 0 227 0 -5 56 c-21 242 -154 426 -386 533 -101 47 -178 65 -313 77
-38 3 -75 7 -82 9 -6 2 -13 2 -15 1z"/>
<path d="M6405 7509 c-470 -38 -776 -357 -843 -879 -9 -71 -9 -388 0 -460 60
-490 348 -814 778 -875 19 -3 81 -6 136 -6 217 -1 387 54 551 177 189 141 319
390 357 680 17 134 13 443 -8 559 -82 460 -391 769 -801 801 -38 3 -74 6 -80
8 -5 1 -46 -1 -90 -5z m228 -399 c174 -65 268 -225 303 -515 6 -48 5 -345 -1
-399 -9 -79 -35 -195 -56 -250 -58 -149 -176 -256 -314 -282 -52 -11 -168 -5
-217 10 -170 51 -289 220 -323 461 -4 28 -9 59 -11 70 -9 45 -4 365 6 435 26
180 72 291 159 380 59 60 99 82 186 106 68 19 196 11 268 -16z"/>
<path d="M9178 7516 c-1 -2 -39 -6 -83 -9 -469 -35 -752 -324 -691 -707 16
-97 87 -221 172 -300 120 -112 249 -176 582 -291 291 -100 371 -164 378 -299
4 -86 -11 -128 -65 -180 -62 -61 -133 -84 -261 -84 -131 0 -187 10 -266 49
-90 44 -146 132 -160 252 l-7 53 -224 0 -224 0 2 -57 c9 -214 140 -414 349
-531 271 -152 703 -167 983 -33 142 68 250 182 298 316 32 88 33 281 2 380
-26 82 -81 172 -144 234 -53 53 -182 139 -264 176 -33 15 -73 33 -90 40 -16 8
-106 39 -200 70 -319 106 -417 179 -417 311 0 169 175 271 412 241 158 -20
257 -111 276 -254 l7 -53 223 0 224 0 0 38 c-1 163 -102 359 -240 463 -131 98
-280 152 -460 164 -47 4 -90 8 -97 10 -6 2 -13 2 -15 1z"/>
<path d="M4879 5747 c-59 -22 -105 -64 -129 -118 -50 -117 -7 -247 103 -306
49 -27 189 -25 243 4 101 54 145 165 109 276 -20 64 -55 102 -117 132 -55 26
-154 31 -209 12z"/>
<path d="M7665 5739 c-49 -21 -109 -82 -124 -128 -28 -85 -2 -191 61 -250 109
-102 326 -69 394 61 21 40 28 127 14 178 -16 62 -89 132 -155 149 -63 16 -141
12 -190 -10z"/>
</g>
</svg>
