<?xml version="1.0" standalone="no"?>
<!DOCTYPE svg PUBLIC "-//W3C//DTD SVG 20010904//EN"
 "http://www.w3.org/TR/2001/REC-SVG-20010904/DTD/svg10.dtd">
<svg version="1.0" xmlns="http://www.w3.org/2000/svg"
 width="900.000000pt" height="900.000000pt" viewBox="0 0 900.000000 900.000000"
 preserveAspectRatio="xMidYMid meet">
<metadata>
Created by potrace 1.14, written by Peter Selinger 2001-2017
</metadata>
<g transform="translate(0.000000,900.000000) scale(0.100000,-0.100000)"
fill="#000000" stroke="none">
<path d="M4651 8604 c-30 -8 -73 -28 -97 -45 -23 -16 -45 -29 -49 -29 -3 0
-23 -12 -44 -26 -53 -34 -87 -89 -107 -170 -16 -63 -16 -71 0 -140 10 -41 21
-76 26 -79 5 -3 5 -19 0 -36 -5 -17 -10 -81 -11 -143 -4 -294 -140 -542 -518
-951 -25 -27 -59 -67 -75 -88 -16 -21 -48 -51 -70 -67 -57 -39 -302 -284 -391
-390 -155 -186 -286 -409 -321 -543 -9 -34 -20 -67 -25 -73 -14 -17 -67 -250
-79 -344 -15 -126 -12 -207 10 -288 19 -69 20 -76 4 -135 -13 -52 -14 -78 -5
-172 21 -217 13 -255 -59 -255 -38 0 -38 0 -69 74 -36 86 -58 202 -67 353 -14
239 -69 329 -227 369 -63 15 -71 15 -134 -1 -65 -16 -117 -46 -156 -90 -10
-11 -46 -78 -82 -150 -230 -468 -432 -1121 -500 -1620 -23 -161 -31 -522 -16
-667 33 -318 137 -664 284 -953 62 -120 244 -404 296 -460 16 -16 46 -55 69
-85 47 -65 299 -323 392 -402 114 -97 284 -218 322 -230 21 -6 49 -24 63 -40
52 -58 225 -158 311 -179 27 -7 72 -30 100 -50 54 -41 144 -79 236 -99 48 -11
66 -10 123 4 121 30 181 89 210 209 15 58 15 68 0 127 -9 35 -30 83 -45 106
-31 44 -140 128 -188 145 -15 5 -36 22 -45 38 -9 15 -51 68 -93 117 -109 126
-193 262 -257 416 l-15 37 57 -44 c88 -67 199 -123 279 -141 67 -15 77 -15
138 0 172 43 225 138 216 390 -6 187 16 324 67 414 112 196 175 293 252 390
91 112 399 448 444 484 47 37 211 224 270 309 105 150 172 293 210 449 l19 75
42 -90 c24 -49 62 -142 85 -205 23 -63 48 -128 55 -144 8 -16 14 -39 14 -52 0
-12 10 -75 22 -141 29 -163 32 -524 5 -688 -40 -238 -131 -450 -377 -880 -241
-420 -322 -611 -377 -893 -26 -132 -26 -135 -10 -204 29 -119 93 -184 209
-213 60 -15 69 -15 128 0 87 23 142 65 196 151 47 76 112 132 290 252 50 33
98 67 106 75 7 8 24 18 37 22 33 10 254 144 343 208 40 28 87 59 103 67 41 21
303 209 395 284 98 79 275 256 328 326 27 37 46 77 58 123 14 59 20 69 50 83
110 52 231 279 318 597 62 224 80 356 80 587 1 228 -4 271 -66 515 -74 294
-127 422 -418 1009 -115 232 -223 457 -240 501 -107 269 -134 394 -128 585 4
110 8 134 35 200 50 125 57 167 38 241 -29 111 -93 175 -205 204 -119 31 -220
-8 -393 -149 -32 -26 -60 -46 -62 -44 -1 2 -8 57 -15 123 -36 361 -127 746
-245 1041 -156 387 -412 766 -718 1061 -89 86 -115 105 -159 118 -80 24 -118
26 -177 9z m326 -544 c391 -465 603 -988 680 -1672 30 -274 18 -864 -23 -1140
-8 -56 6 -42 36 37 58 147 80 188 94 176 11 -9 28 -8 74 4 33 8 80 15 104 15
55 0 91 31 81 70 -12 46 -38 51 -81 15 -53 -45 -85 -25 -64 40 7 26 7 39 -3
52 -11 15 -7 25 27 76 103 151 295 345 407 410 l31 18 -20 -46 c-74 -172 -84
-421 -26 -658 l23 -94 -25 0 c-39 0 -57 -26 -46 -65 12 -40 43 -49 72 -20 19
19 20 18 62 -92 57 -149 58 -154 20 -195 -17 -18 -30 -41 -28 -50 4 -23 55
-26 79 -5 10 9 21 15 23 13 14 -14 401 -806 444 -908 92 -218 160 -434 177
-566 4 -27 9 -58 11 -67 4 -12 0 -15 -16 -11 -11 3 -28 -1 -38 -10 -9 -8 -26
-17 -37 -19 -28 -5 -26 -75 3 -99 14 -11 20 -26 19 -45 -2 -23 2 -29 18 -29
17 0 20 8 23 57 2 32 -2 66 -7 77 -9 16 -7 19 14 17 21 -1 25 -7 31 -45 15
-102 -15 -412 -57 -581 -32 -128 -146 -410 -167 -410 -4 0 -13 9 -20 20 -7 11
-23 20 -37 20 -20 0 -30 -9 -47 -45 -26 -53 -43 -56 -104 -21 -81 46 -133 39
-192 -28 -31 -35 -33 -42 -30 -99 3 -62 3 -62 36 -65 42 -4 42 -30 -1 -57 -17
-11 -38 -32 -47 -47 -14 -27 -14 -29 22 -65 28 -28 45 -37 72 -37 20 -1 36 -4
36 -7 0 -7 -206 -193 -218 -197 -5 -1 -7 11 -4 27 2 18 -4 48 -16 73 -12 24
-24 55 -27 70 -11 43 -37 61 -71 48 -55 -21 -67 -39 -130 -187 -17 -40 -36
-42 -62 -7 -18 25 -21 26 -55 15 -48 -16 -87 -63 -87 -106 0 -48 -13 -74 -60
-124 -39 -41 -42 -46 -36 -85 4 -22 13 -51 21 -63 14 -20 11 -23 -79 -78 l-94
-56 -37 15 c-52 22 -88 20 -112 -6 -27 -30 -39 -55 -47 -98 -5 -32 -18 -44
-109 -107 -56 -38 -113 -74 -127 -78 -14 -4 -51 -21 -84 -37 -32 -16 -61 -27
-64 -23 -13 13 73 240 143 378 39 78 134 250 210 382 163 283 242 445 296 607
37 109 87 319 90 378 l2 25 4 -25 c8 -40 21 -50 49 -39 47 17 51 11 29 -43 -5
-13 -1 -20 16 -27 13 -4 30 -6 37 -4 16 7 15 52 -3 83 -19 33 -18 40 4 40 39
0 43 24 11 68 -44 61 -37 80 15 46 41 -27 63 7 26 40 -41 37 -140 40 -162 4
-3 -5 -9 86 -12 204 -4 137 -13 251 -25 321 -16 92 -16 109 -4 119 9 8 12 22
8 40 -6 29 20 68 45 68 6 0 9 12 7 27 -3 25 -10 30 -60 43 -31 8 -61 20 -66
25 -5 6 -23 53 -41 105 -71 210 -234 501 -382 685 -115 142 -296 312 -424 398
-57 39 -62 34 -21 -22 80 -108 142 -264 166 -414 17 -103 7 -306 -19 -414 -55
-222 -150 -387 -335 -584 l-68 -72 -25 32 c-13 17 -30 31 -37 31 -21 0 -96
-82 -96 -105 0 -12 11 -32 25 -45 l24 -23 -124 -131 c-232 -245 -382 -441
-476 -620 -42 -80 -54 -95 -77 -98 -34 -4 -102 -91 -102 -131 0 -15 10 -47 21
-69 20 -38 20 -48 11 -108 -18 -107 -23 -200 -14 -281 l8 -76 -32 13 c-74 31
-130 71 -149 108 -23 44 -53 65 -65 46 -11 -18 -71 31 -153 123 -125 141 -137
167 -76 167 48 0 79 39 79 99 0 56 -12 73 -67 96 -55 23 -100 4 -114 -48 -7
-26 -14 -36 -20 -30 -16 16 -87 188 -106 253 -9 33 -20 60 -24 60 -13 0 -48
-172 -60 -286 -6 -60 -15 -119 -21 -132 -9 -17 -9 -25 0 -34 7 -7 12 -23 12
-36 0 -18 -4 -22 -19 -17 -11 3 -22 1 -26 -5 -11 -18 5 -50 25 -50 22 0 23 -3
40 -138 26 -206 107 -443 217 -635 l63 -110 -30 -45 c-17 -25 -30 -50 -30 -55
0 -5 -12 -6 -27 -2 -16 4 -52 8 -80 10 -55 3 -104 30 -123 66 -6 10 -18 19
-26 19 -9 0 -44 23 -78 51 -118 99 -146 128 -146 154 0 14 4 25 9 25 5 0 21
25 37 55 26 50 32 55 62 55 29 0 35 5 49 37 17 43 12 108 -11 131 -12 13 -19
13 -46 2 -17 -7 -35 -21 -41 -32 -10 -18 -11 -18 -40 7 -37 31 -49 31 -73 3
-15 -18 -17 -27 -8 -56 9 -28 7 -46 -10 -98 -20 -59 -38 -76 -38 -34 0 10 -4
22 -10 25 -5 3 -10 17 -10 31 0 23 -19 31 -54 25 -13 -3 -44 28 -67 66 -19 31
-20 36 -6 51 9 10 17 42 19 82 3 63 2 65 -27 79 l-30 15 33 13 c18 7 35 20 38
27 6 15 -16 64 -48 107 -19 26 -19 26 6 64 33 49 33 61 -4 80 -34 18 -68 13
-117 -17 -41 -24 -42 -44 -3 -77 21 -18 33 -40 39 -71 5 -25 11 -52 15 -60 3
-8 -3 -29 -14 -47 -18 -30 -21 -32 -50 -21 -38 13 -77 72 -181 273 -90 175
-133 282 -185 454 -26 87 -34 126 -26 129 18 6 14 43 -7 66 -13 14 -23 48 -31
96 -18 125 -24 413 -11 560 25 280 83 590 117 615 26 20 33 19 44 -9 9 -24 10
-24 39 -10 40 20 51 55 39 134 -11 74 -21 90 -54 90 -28 0 -32 16 -6 25 29 9
43 48 29 84 -10 26 -4 48 51 199 64 177 151 384 223 537 l43 90 8 -100 c14
-188 44 -327 100 -470 25 -62 44 -92 88 -136 70 -71 131 -94 246 -94 73 0 88
4 157 38 134 66 186 155 194 332 3 55 0 140 -6 189 l-11 89 30 41 c33 47 110
195 110 213 0 17 -68 70 -99 76 -14 3 -32 1 -38 -5 -10 -8 -13 -3 -13 21 0 28
3 31 30 31 63 0 112 83 129 216 5 44 17 114 27 153 9 40 14 86 10 102 -3 15 1
44 9 63 20 46 19 76 -2 91 -16 12 -14 17 18 69 56 94 164 223 319 380 l146
148 44 -42 c35 -34 48 -40 69 -35 44 11 52 27 51 101 -1 38 -1 77 -1 87 0 10
18 38 40 63 23 24 41 48 41 54 0 6 42 59 93 118 226 261 330 429 409 662 21
63 36 99 33 80 -19 -116 -17 -144 9 -204 15 -33 38 -75 53 -94 34 -45 53 -135
42 -204 -5 -29 -31 -101 -59 -159 -28 -59 -53 -122 -54 -140 -2 -19 -13 -72
-25 -118 -26 -104 -26 -141 0 -252 l21 -88 51 52 c29 29 60 62 69 73 9 10 24
25 33 33 13 10 16 23 12 50 -4 20 -11 68 -17 106 -17 107 -5 205 37 304 l36
83 -14 96 c-14 94 -13 98 10 170 25 74 25 75 7 121 -10 25 -19 73 -20 106 -1
33 -11 96 -23 140 -12 44 -24 97 -28 118 -7 42 -14 44 -72 17 l-43 -19 0 79 0
79 43 3 c41 3 42 4 45 43 2 22 9 45 17 51 11 8 6 19 -26 60 -43 54 -46 71 -23
116 l16 31 70 -69 c38 -38 117 -125 175 -194z m-1597 -7077 c25 -30 49 -61 55
-69 7 -9 1 -22 -20 -44 -16 -16 -33 -30 -38 -30 -4 0 -37 17 -72 38 -61 35
-65 39 -65 75 0 20 0 40 -1 44 0 5 14 11 31 14 18 4 37 12 43 18 16 16 18 15
67 -46z"/>
<path d="M4240 6457 c-59 -34 -76 -48 -78 -68 -4 -33 8 -42 97 -69 41 -13 88
-31 105 -41 47 -27 97 -14 110 29 13 47 -6 65 -62 59 -24 -3 -52 -2 -63 0 -27
7 -24 45 6 73 l26 24 -23 18 c-13 10 -27 17 -33 17 -5 0 -44 -19 -85 -42z"/>
<path d="M3839 6483 c-1 -5 0 -18 1 -30 1 -19 -5 -23 -47 -29 -63 -9 -79 -18
-87 -50 -10 -39 27 -77 67 -68 27 6 28 5 17 -16 -25 -47 58 -72 101 -29 24 24
79 142 79 170 0 34 -36 59 -85 59 -25 0 -45 -3 -46 -7z"/>
<path d="M4664 5991 c5 -29 4 -32 -12 -26 -9 5 -31 10 -47 12 -27 4 -33 0 -48
-31 -20 -43 -15 -60 24 -76 31 -13 52 -4 74 30 7 11 12 -2 21 -50 7 -36 20
-92 30 -126 16 -56 13 -114 -4 -88 -4 6 -17 17 -30 23 -20 11 -27 10 -43 -5
-10 -9 -19 -24 -19 -33 -1 -36 -29 -66 -77 -82 -39 -14 -49 -22 -51 -43 -6
-45 34 -51 132 -21 45 14 87 25 93 25 6 0 24 -21 39 -47 36 -62 111 -137 152
-151 l32 -11 -14 27 c-27 55 -48 167 -48 264 0 83 -3 102 -24 140 -13 23 -46
86 -74 138 -28 52 -64 111 -81 130 l-31 35 6 -34z"/>
<path d="M5450 5783 c-8 -3 -30 -22 -49 -41 -32 -34 -33 -38 -27 -90 7 -56 38
-128 65 -149 22 -18 86 -34 104 -28 8 4 19 17 26 31 12 27 1 58 -44 119 -24
34 -25 45 -6 98 10 30 10 41 1 52 -13 15 -42 18 -70 8z"/>
<path d="M3634 5769 c-51 -15 -53 -50 -6 -93 25 -22 77 -14 92 15 14 24 2 67
-20 79 -21 11 -24 11 -66 -1z"/>
<path d="M5492 5436 c-33 -19 -36 -24 -23 -40 15 -18 -1 -49 -35 -67 -31 -16
-37 -37 -19 -65 16 -25 58 -33 70 -14 11 17 25 11 35 -14 9 -24 10 -24 39 -10
16 8 34 27 39 42 11 31 -3 149 -20 170 -13 15 -56 14 -86 -2z"/>
<path d="M3731 5301 c-15 -28 12 -122 56 -193 30 -48 29 -62 -4 -87 -38 -31
-73 -82 -73 -107 0 -16 15 -35 45 -57 l45 -35 62 13 c92 18 133 39 148 75 13
31 12 33 -28 69 -46 42 -51 56 -57 161 -7 126 -8 130 -51 130 -12 0 -42 11
-68 25 -56 30 -62 30 -75 6z"/>
<path d="M5345 5180 c-16 -36 -17 -48 -6 -127 14 -96 16 -103 36 -103 26 0 32
34 26 150 -5 94 -9 115 -22 118 -10 2 -22 -11 -34 -38z"/>
<path d="M3333 5193 c-32 -12 -6 -63 32 -63 33 0 36 10 13 41 -22 30 -24 31
-45 22z"/>
<path d="M4746 5191 c-3 -5 -26 -12 -50 -15 -24 -4 -50 -15 -59 -24 -47 -54
-127 -270 -127 -345 0 -51 37 -126 73 -146 52 -31 94 32 112 169 13 97 25 123
86 183 32 32 59 65 59 72 0 7 3 21 6 29 4 11 -7 28 -32 51 -38 35 -58 43 -68
26z"/>
<path d="M4357 5163 c-17 -16 -4 -54 30 -87 47 -45 66 -52 92 -29 50 42 -1
123 -78 123 -21 0 -41 -3 -44 -7z"/>
<path d="M5590 5154 c-8 -2 -32 -5 -52 -9 -49 -8 -51 -36 -6 -82 l31 -32 -26
-10 c-34 -13 -35 -43 -2 -65 14 -10 30 -28 35 -42 11 -29 59 -33 86 -7 14 15
16 30 10 106 -3 48 -10 97 -16 107 -12 23 -39 38 -60 34z"/>
<path d="M6032 5080 c-27 -16 -33 -26 -30 -48 4 -33 33 -40 77 -17 46 23 41
85 -7 85 -4 0 -22 -9 -40 -20z"/>
<path d="M6056 4978 c-9 -12 -16 -35 -16 -50 0 -25 4 -28 33 -28 45 0 77 25
77 59 0 46 -67 58 -94 19z"/>
<path d="M5238 4904 c-10 -22 -9 -32 7 -62 16 -29 27 -38 52 -40 27 -3 33 1
39 21 6 27 -8 62 -37 90 -26 24 -48 21 -61 -9z"/>
<path d="M3614 4856 c-9 -23 1 -94 16 -111 22 -27 75 -18 104 16 14 17 26 34
26 38 0 4 -13 20 -29 35 -36 34 -107 48 -117 22z"/>
<path d="M2320 4810 c0 -25 8 -35 47 -61 45 -28 49 -29 61 -12 11 15 10 20 -8
33 -12 8 -35 27 -53 43 -40 34 -47 34 -47 -3z"/>
<path d="M2363 4664 c-7 -18 20 -44 46 -44 22 0 50 30 44 46 -8 21 -82 19 -90
-2z"/>
<path d="M6461 4654 c-65 -27 -27 -83 60 -87 27 -2 33 3 41 26 18 52 -40 87
-101 61z"/>
<path d="M5965 4618 c-19 -22 -25 -38 -20 -55 4 -18 -2 -30 -26 -52 -24 -22
-30 -35 -26 -53 8 -31 60 -83 115 -115 39 -23 43 -29 37 -52 -12 -45 -17 -133
-8 -141 4 -4 31 -11 60 -15 l52 -7 61 63 c51 52 61 67 58 92 -3 28 -8 32 -51
43 -59 15 -80 33 -109 93 -12 25 -31 53 -42 62 -28 23 -25 93 4 124 l21 23
-32 11 c-49 17 -65 14 -94 -21z"/>
<path d="M2363 4409 c-13 -4 -23 -16 -23 -26 0 -10 -18 -44 -40 -77 -31 -46
-38 -62 -30 -76 16 -30 26 -32 89 -15 32 8 79 15 103 15 55 0 91 31 81 70 -12
46 -38 51 -81 15 -53 -45 -85 -25 -64 40 13 44 -2 67 -35 54z"/>
<path d="M4191 4189 c-21 -23 -27 -58 -22 -131 3 -42 -10 -54 -41 -37 -19 10
-25 8 -46 -16 -21 -25 -23 -35 -18 -78 4 -30 2 -70 -6 -99 -13 -55 -9 -69 35
-102 24 -18 27 -18 51 -3 32 21 70 78 135 198 39 74 51 106 51 141 0 50 -6 60
-72 112 l-46 37 -21 -22z"/>
<path d="M6033 4112 c-50 -8 -53 -51 -7 -97 47 -47 85 -29 87 40 2 47 1 49
-28 55 -16 3 -40 4 -52 2z"/>
<path d="M4555 4057 c-63 -63 -58 -90 35 -219 48 -66 70 -77 106 -53 71 46 68
205 -4 288 -10 11 -30 17 -60 17 -37 0 -50 -6 -77 -33z"/>
<path d="M2338 4048 c-37 -33 -50 -62 -39 -91 9 -22 15 -24 88 -26 66 -2 83 1
102 18 45 39 -2 104 -85 116 -32 5 -44 2 -66 -17z"/>
<path d="M3075 3984 c-75 -30 -104 -56 -85 -78 11 -14 9 -16 -13 -16 -31 0
-38 -18 -31 -73 5 -37 2 -46 -26 -76 -40 -43 -36 -66 12 -66 33 0 37 -3 42
-30 4 -22 -2 -47 -19 -83 -14 -29 -25 -59 -25 -68 0 -8 -5 -25 -11 -36 -9 -17
-7 -30 12 -67 12 -25 29 -52 37 -60 11 -12 9 -18 -15 -45 -65 -71 -65 -71 -69
-164 -2 -66 -9 -105 -27 -150 -25 -59 -25 -61 -6 -78 25 -23 26 -100 2 -127
-16 -17 -16 -20 -2 -30 8 -7 32 -40 52 -73 49 -82 59 -89 83 -63 14 16 19 37
20 88 0 36 4 75 9 85 5 11 4 42 -3 74 -10 48 -9 59 9 96 14 29 18 52 14 81 -7
44 5 85 32 112 11 11 19 34 19 61 1 23 7 62 14 86 11 40 10 47 -10 74 -18 25
-23 44 -23 104 0 79 23 141 77 206 23 27 26 39 26 108 0 44 -4 96 -9 117 -5
21 -5 39 0 43 5 3 9 21 9 40 0 41 -10 42 -95 8z"/>
<path d="M5725 3985 c-17 -7 -39 -23 -49 -34 -16 -18 -17 -25 -7 -44 23 -43
63 -80 87 -83 29 -3 42 19 24 41 -10 12 -8 19 14 36 29 23 34 60 10 83 -18 19
-38 19 -79 1z"/>
<path d="M6817 3976 c-7 -17 30 -79 44 -74 13 4 12 8 -7 53 -15 37 -28 44 -37
21z"/>
<path d="M6067 3915 c-9 -8 -18 -33 -22 -55 -6 -37 -9 -40 -39 -40 -38 0 -76
-24 -76 -49 0 -18 61 -82 97 -100 37 -19 168 -14 219 9 24 11 44 27 44 35 0
17 -144 191 -170 205 -25 14 -36 13 -53 -5z"/>
<path d="M2110 3904 c-8 -2 -32 -5 -52 -9 -49 -8 -51 -36 -6 -82 l31 -32 -26
-10 c-34 -13 -35 -43 -2 -65 14 -10 30 -28 35 -42 11 -29 59 -33 86 -7 14 15
16 30 10 106 -3 48 -10 97 -16 107 -12 23 -39 38 -60 34z"/>
<path d="M2346 3876 c-28 -13 -55 -48 -56 -73 0 -6 16 -28 35 -49 39 -41 40
-30 -10 -108 -15 -22 -14 -26 10 -55 18 -21 24 -37 20 -51 -8 -25 -1 -25 33
-2 15 10 35 22 45 25 15 6 16 10 5 26 -10 17 -8 25 18 58 38 48 51 91 29 99
-28 11 -37 42 -24 79 10 27 10 37 0 49 -16 19 -64 19 -105 2z"/>
<path d="M6807 3873 c-12 -11 -8 -22 13 -33 23 -12 53 -1 42 16 -9 15 -46 26
-55 17z"/>
<path d="M2554 3831 c-75 -46 -32 -107 46 -66 45 24 39 85 -8 85 -4 0 -21 -9
-38 -19z"/>
<path d="M4402 3834 c-37 -26 -55 -73 -58 -153 -2 -83 -7 -90 -79 -116 -72
-26 -75 -29 -75 -102 0 -56 -3 -67 -26 -88 -15 -14 -30 -25 -34 -25 -15 0 -59
-117 -60 -160 -4 -111 -4 -111 49 -26 63 99 77 114 115 124 26 7 32 14 34 43
5 48 16 57 85 70 90 18 117 48 117 129 0 50 4 64 23 80 79 70 77 67 77 118 0
43 -4 51 -32 73 -35 26 -83 49 -102 49 -6 0 -22 -7 -34 -16z"/>
<path d="M2576 3728 c-9 -12 -16 -35 -16 -50 0 -25 4 -28 33 -28 45 0 77 25
77 59 0 46 -67 58 -94 19z"/>
<path d="M6718 3702 c-7 -10 -28 -27 -45 -37 -48 -28 -45 -62 5 -70 20 -3 56
-11 80 -17 36 -9 46 -8 59 5 26 26 9 51 -31 44 -49 -8 -64 5 -42 38 28 42 3
77 -26 37z"/>
<path d="M3931 3574 c-21 -15 -23 -22 -18 -71 7 -66 29 -95 66 -87 59 13 92
97 61 155 -14 24 -76 26 -109 3z"/>
<path d="M2142 3537 c-12 -13 -22 -29 -22 -37 0 -18 31 -39 58 -40 22 0 62 32
62 50 0 17 -39 50 -58 50 -10 0 -28 -10 -40 -23z"/>
<path d="M4536 3518 c-19 -27 -21 -68 -3 -91 6 -9 32 -23 57 -31 51 -18 60
-13 84 45 14 33 13 38 -4 67 -18 29 -24 32 -69 32 -40 0 -53 -4 -65 -22z"/>
<path d="M6630 3493 c-23 -8 -50 -35 -50 -48 0 -15 92 -58 116 -53 40 7 24 76
-23 97 -13 6 -25 11 -26 10 -1 0 -9 -3 -17 -6z"/>
<path d="M6907 3403 c-4 -3 -7 -17 -7 -30 0 -18 6 -23 24 -23 28 0 51 24 42
45 -5 15 -47 21 -59 8z"/>
<path d="M2175 3374 c-10 -15 -19 -56 -22 -100 -3 -41 -10 -77 -14 -80 -5 -3
-9 -16 -9 -29 0 -26 29 -46 83 -59 39 -9 44 13 17 84 -20 54 -21 62 -8 78 9 9
18 40 22 68 5 42 3 53 -10 58 -28 11 -41 6 -59 -20z"/>
<path d="M6550 3365 c-10 -12 -11 -24 -2 -50 9 -33 8 -36 -20 -56 -24 -17 -28
-26 -23 -46 3 -14 2 -30 -4 -37 -13 -15 -39 -128 -33 -145 2 -7 15 -16 28 -21
32 -13 30 -26 -6 -39 -20 -7 -30 -17 -30 -31 0 -19 26 -74 52 -111 9 -13 6
-23 -15 -51 -34 -44 -34 -61 -1 -83 31 -20 73 -15 122 15 30 18 46 60 22 60
-23 0 -49 46 -59 104 -14 82 -14 83 9 106 16 16 24 18 50 9 24 -9 35 -8 55 5
14 9 25 21 25 26 0 12 -47 44 -92 63 -22 9 -38 23 -38 32 0 9 -7 29 -15 45
-15 29 -15 30 26 55 36 24 40 29 34 56 -5 22 -2 36 11 50 14 15 16 24 8 37
-15 23 -86 28 -104 7z"/>
<path d="M3282 3288 c-46 -46 50 -105 104 -63 18 14 18 16 -14 45 -34 31 -70
38 -90 18z"/>
<path d="M6680 3285 c-17 -21 -4 -35 35 -35 32 0 52 20 39 41 -8 14 -60 10
-74 -6z"/>
<path d="M6684 3214 c-15 -22 -15 -27 -3 -35 25 -15 58 -10 69 12 13 23 13 22
-17 38 -29 15 -30 15 -49 -15z"/>
<path d="M6960 3204 c-6 -14 -10 -29 -10 -33 0 -4 -16 -15 -36 -24 -38 -18
-41 -40 -7 -45 26 -4 133 43 133 58 0 20 -40 70 -56 70 -8 0 -19 -12 -24 -26z"/>
<path d="M3237 3129 c-13 -48 29 -81 69 -54 44 29 25 75 -32 75 -24 0 -33 -5
-37 -21z"/>
<path d="M3430 2998 c-37 -40 -17 -103 31 -96 20 2 25 10 29 43 10 70 -19 96
-60 53z"/>
<path d="M2166 2984 c-21 -20 -20 -50 0 -58 19 -7 62 18 71 41 12 31 -44 44
-71 17z"/>
<path d="M6834 2908 c-7 -11 47 -68 64 -68 4 0 12 8 19 19 9 15 8 23 -3 40
-17 23 -68 29 -80 9z"/>
<path d="M3432 2770 c-30 -13 -37 -34 -22 -70 15 -36 48 -47 87 -28 23 11 28
20 26 46 -2 57 -34 74 -91 52z"/>
<path d="M2245 2735 c-17 -7 -39 -23 -49 -34 -16 -18 -17 -25 -7 -44 23 -43
63 -80 87 -83 29 -3 42 19 24 41 -10 12 -8 19 14 36 29 23 34 60 10 83 -18 19
-38 19 -79 1z"/>
<path d="M6194 2687 c-11 -5 -20 -11 -21 -12 -6 -4 21 -81 31 -87 20 -13 34
-8 29 10 -3 12 4 22 21 30 26 12 35 45 15 57 -18 12 -56 12 -75 2z"/>
<path d="M6420 2668 c0 -53 48 -76 74 -35 16 25 -4 51 -43 55 -27 3 -31 0 -31
-20z"/>
<path d="M6403 2537 c-15 -19 -25 -23 -55 -19 -49 5 -56 -13 -29 -67 16 -30
33 -45 68 -61 46 -21 108 -29 121 -16 7 7 -14 93 -35 149 -18 43 -43 48 -70
14z"/>
<path d="M6084 2475 c-4 -16 0 -33 13 -51 19 -26 19 -28 1 -46 -10 -10 -18
-27 -18 -38 0 -33 55 -27 72 8 7 15 23 28 36 30 34 5 26 31 -24 79 -53 49 -71
53 -80 18z"/>
<path d="M2182 2398 c-24 -24 -5 -97 26 -98 4 -1 17 -9 29 -19 22 -18 22 -20
6 -60 -16 -40 -16 -43 3 -61 19 -20 20 -20 58 6 33 23 37 30 32 55 -6 30 20
69 45 69 6 0 9 12 7 27 -3 25 -10 30 -59 43 -31 8 -62 20 -70 26 -23 18 -65
24 -77 12z"/>
<path d="M2697 2312 c-10 -10 -17 -23 -17 -28 0 -5 -18 -35 -40 -68 -48 -71
-50 -98 -9 -137 32 -30 60 -28 73 6 3 8 11 15 17 15 8 0 8 -4 -1 -14 -6 -8
-11 -25 -9 -38 3 -35 -11 -78 -26 -78 -23 0 -29 -22 -11 -36 15 -10 17 -21 11
-54 -7 -40 -7 -41 -31 -26 -36 24 -42 20 -37 -29 4 -43 3 -46 -32 -66 -39 -23
-44 -53 -13 -73 22 -13 49 10 73 64 25 55 38 51 30 -9 -6 -44 -4 -50 16 -65
13 -9 38 -16 56 -16 51 0 73 44 72 140 -1 49 4 88 15 112 23 53 20 98 -9 152
-30 57 -31 76 -6 76 20 0 51 34 51 56 0 17 -78 77 -93 71 -18 -7 -32 -3 -29 7
4 12 -19 56 -28 56 -4 0 -14 -8 -23 -18z"/>
<path d="M3605 2166 c-9 -13 -18 -55 -21 -93 -5 -57 -2 -73 15 -100 11 -18 28
-33 38 -33 27 0 103 89 103 120 0 40 -35 105 -65 118 -38 17 -53 15 -70 -12z"/>
<path d="M2448 2154 c-11 -22 -10 -28 7 -40 25 -18 64 -18 71 1 9 22 -23 65
-46 65 -12 0 -25 -11 -32 -26z"/>
<path d="M2546 1627 c-15 -11 -17 -17 -7 -35 14 -26 30 -28 57 -8 15 12 17 18
8 33 -14 23 -35 27 -58 10z"/>
</g>
</svg>
