<?xml version="1.0" standalone="no"?>
<!DOCTYPE svg PUBLIC "-//W3C//DTD SVG 20010904//EN"
 "http://www.w3.org/TR/2001/REC-SVG-20010904/DTD/svg10.dtd">
<svg version="1.0" xmlns="http://www.w3.org/2000/svg"
 width="4167.000000pt" height="4167.000000pt" viewBox="0 0 4167.000000 4167.000000"
 preserveAspectRatio="xMidYMid meet">
<metadata>
Created by potrace 1.11, written by Peter Selinger 2001-2013
</metadata>
<g transform="translate(0.000000,4167.000000) scale(0.100000,-0.100000)"
fill="#000000" stroke="none">
<path d="M20367 40514 c-1 -1 -70 -5 -152 -9 -83 -3 -181 -8 -220 -10 -38 -3
-106 -7 -150 -10 -44 -3 -107 -8 -140 -10 -33 -3 -87 -8 -120 -10 -111 -9
-190 -16 -215 -20 -14 -2 -56 -6 -95 -10 -38 -3 -81 -8 -95 -10 -14 -2 -52 -6
-85 -10 -32 -4 -66 -8 -75 -10 -8 -1 -42 -6 -75 -9 -33 -4 -71 -9 -85 -11 -14
-2 -41 -6 -60 -9 -49 -7 -289 -44 -325 -50 -16 -3 -86 -15 -155 -27 -69 -11
-127 -22 -130 -24 -3 -2 -30 -6 -60 -10 -30 -4 -58 -9 -61 -11 -3 -2 -21 -6
-40 -9 -62 -11 -273 -56 -359 -77 -47 -11 -94 -22 -105 -24 -11 -2 -32 -6 -47
-10 -15 -3 -31 -6 -35 -6 -5 0 -18 -4 -31 -9 -12 -5 -33 -11 -45 -13 -37 -7
-184 -45 -357 -93 -1271 -349 -2483 -872 -3585 -1546 -296 -181 -847 -552
-996 -671 -15 -12 -39 -30 -55 -41 -28 -20 -295 -226 -349 -270 -115 -92 -485
-404 -516 -434 -14 -14 -46 -43 -70 -65 -243 -212 -769 -736 -998 -994 -593
-669 -1010 -1229 -1443 -1937 -70 -115 -232 -396 -288 -500 -23 -44 -55 -102
-70 -130 -36 -65 -242 -477 -282 -563 -94 -206 -205 -462 -277 -642 -45 -113
-86 -214 -91 -225 -5 -11 -12 -31 -15 -45 -4 -14 -13 -38 -20 -55 -106 -256
-359 -1080 -410 -1335 -2 -8 -4 -16 -5 -17 -3 -3 -3 -3 -15 -58 -4 -22 -9 -44
-11 -50 -64 -260 -171 -830 -199 -1064 -4 -30 -8 -63 -11 -74 -2 -10 -6 -45
-10 -76 -3 -31 -8 -65 -10 -76 -2 -10 -6 -51 -10 -90 -3 -38 -8 -78 -9 -87 -4
-17 -12 -100 -20 -188 -2 -25 -6 -74 -9 -110 -6 -64 -9 -109 -21 -300 -3 -52
-9 -133 -12 -180 -3 -47 -7 -847 -8 -1778 -2 -932 -7 -1697 -11 -1702 -5 -4
-57 -32 -115 -63 -302 -157 -569 -392 -764 -672 -64 -91 -70 -101 -142 -235
-88 -162 -184 -436 -207 -596 -4 -22 -9 -51 -11 -64 -3 -14 -8 -54 -13 -90 -9
-84 -9 -4247 0 -4360 79 -923 549 -1792 1283 -2374 33 -26 67 -53 75 -59 173
-139 539 -344 786 -440 134 -52 338 -119 404 -132 8 -2 33 -8 55 -13 22 -6 51
-13 65 -16 14 -3 34 -7 45 -9 11 -3 40 -8 65 -13 25 -4 47 -8 50 -9 4 -1 41
-6 140 -20 56 -8 119 -15 190 -21 97 -8 23301 -8 23400 1 41 3 91 8 110 10 19
2 62 7 95 10 47 5 195 31 335 60 45 9 153 40 248 70 621 199 1136 540 1577
1046 16 19 67 84 112 144 46 61 86 115 91 120 78 102 236 383 312 555 23 52
48 109 56 126 29 67 115 335 143 451 41 169 74 370 88 546 10 119 10 4198 0
4297 -4 41 -9 86 -12 100 -3 13 -7 42 -10 65 -4 22 -11 58 -17 80 -5 22 -12
48 -13 57 -22 114 -105 334 -181 476 -212 402 -521 711 -921 918 l-108 56 -1
1652 c-1 908 -4 1696 -8 1751 -3 55 -8 147 -11 205 -9 168 -23 365 -30 425 -2
17 -6 62 -10 100 -4 39 -9 86 -11 105 -2 19 -7 58 -9 85 -3 28 -7 66 -10 85
-2 19 -7 55 -10 80 -10 80 -16 124 -20 150 -2 14 -6 43 -9 65 -7 46 -53 335
-61 380 -3 17 -15 77 -26 135 -11 58 -22 116 -25 130 -2 14 -7 39 -10 55 -5
28 -38 176 -69 310 -12 50 -59 244 -69 280 -2 6 -6 24 -11 40 -70 272 -175
616 -273 900 -67 194 -143 399 -162 440 -5 11 -25 61 -43 110 -144 377 -468
1060 -690 1450 -22 39 -53 95 -70 125 -16 30 -38 67 -49 82 -10 14 -18 28 -18
31 0 15 -297 489 -416 663 -104 153 -194 284 -205 298 -5 6 -91 121 -191 256
-101 135 -191 254 -200 265 -467 567 -614 731 -1008 1125 -214 213 -291 287
-448 430 -52 47 -108 97 -124 113 -17 15 -53 46 -81 70 -27 23 -56 48 -63 55
-12 11 -253 215 -309 260 -174 143 -481 377 -680 519 -270 193 -781 524 -989
643 -17 9 -94 53 -171 98 -450 258 -1047 551 -1520 747 -49 20 -103 43 -120
51 -87 40 -462 180 -725 271 -277 96 -839 267 -979 298 -9 2 -61 16 -116 30
-55 15 -107 28 -115 30 -8 2 -94 22 -190 45 -96 22 -184 42 -195 45 -26 5
-113 23 -145 30 -53 11 -226 45 -250 49 -38 6 -103 18 -125 23 -20 4 -27 5
-105 18 -24 3 -47 8 -50 10 -3 2 -34 6 -70 10 -36 4 -67 8 -70 10 -3 2 -42 8
-86 14 -44 7 -89 13 -100 15 -10 2 -44 7 -75 10 -31 4 -67 9 -79 11 -13 2 -50
7 -84 10 -33 3 -70 8 -81 10 -11 3 -42 7 -70 9 -114 12 -162 17 -191 21 -17 3
-65 7 -105 10 -41 3 -92 8 -114 10 -22 2 -76 7 -120 10 -44 3 -107 7 -140 10
-33 3 -109 7 -170 10 -60 3 -148 8 -195 11 -84 6 -1088 13 -1093 8z m1048
-1778 c61 -3 146 -8 190 -11 44 -3 109 -8 145 -10 120 -8 215 -16 250 -20 19
-2 67 -7 105 -10 39 -3 102 -10 140 -15 39 -5 97 -12 130 -15 33 -3 67 -8 75
-10 8 -2 42 -7 75 -11 71 -8 71 -8 205 -28 58 -9 130 -20 160 -25 30 -6 73
-13 95 -16 43 -6 57 -8 140 -25 28 -5 64 -12 80 -15 17 -3 41 -7 55 -10 14 -3
39 -8 55 -10 17 -3 111 -24 210 -46 99 -22 189 -42 200 -45 11 -2 56 -13 100
-24 44 -11 91 -23 104 -26 70 -15 490 -133 586 -164 438 -143 474 -155 765
-265 221 -84 485 -193 680 -283 36 -16 97 -44 135 -61 401 -184 995 -511 1400
-771 242 -155 665 -452 775 -543 16 -13 166 -129 209 -162 14 -11 31 -24 37
-30 6 -5 30 -26 54 -45 125 -100 369 -311 545 -470 105 -95 565 -556 665 -666
58 -64 116 -128 130 -143 72 -80 160 -183 298 -350 372 -451 711 -937 1004
-1441 43 -74 83 -142 88 -150 5 -8 16 -28 24 -45 9 -16 47 -88 86 -160 334
-617 645 -1374 856 -2085 31 -102 57 -192 59 -200 1 -8 9 -35 16 -60 15 -55 7
-24 68 -271 47 -190 94 -405 107 -489 3 -19 9 -53 14 -75 5 -22 14 -69 19
-105 6 -36 13 -78 16 -95 10 -58 15 -90 20 -130 3 -22 8 -50 10 -62 3 -12 7
-41 10 -65 3 -24 8 -60 10 -80 15 -115 20 -162 30 -263 3 -33 8 -80 10 -105
10 -91 14 -138 20 -260 4 -69 9 -141 12 -160 3 -19 6 -751 8 -1626 l3 -1591
-11862 1 -11861 1 0 1560 c0 1362 3 1672 20 1885 14 173 17 217 20 231 2 8 6
53 10 100 3 46 8 91 11 100 2 9 6 38 9 65 2 27 11 94 19 149 8 55 17 120 21
145 3 25 10 68 15 95 5 28 12 73 16 100 3 28 8 53 10 56 2 3 8 34 13 70 6 35
13 75 16 89 3 14 10 50 16 80 6 30 31 143 56 250 25 107 46 202 48 210 2 8 24
92 49 185 307 1129 799 2226 1431 3191 159 243 386 560 533 744 24 30 49 62
55 70 75 95 96 120 122 150 16 20 48 57 70 84 22 27 45 54 50 60 6 6 37 43 70
81 33 39 62 72 65 75 3 3 27 30 54 60 302 338 858 883 1055 1035 14 11 31 25
36 32 20 25 386 319 555 447 354 267 669 481 1050 711 74 44 142 84 150 88 8
4 24 13 35 20 465 280 1351 692 1919 893 248 88 727 244 796 259 8 2 80 22
160 44 125 34 393 103 455 116 11 2 29 6 40 9 39 9 401 85 435 91 19 3 42 8
50 10 8 2 33 6 55 10 22 3 47 7 55 10 8 2 33 6 55 10 22 3 65 10 95 15 30 5
73 12 95 15 22 3 81 12 130 20 50 7 117 17 150 20 33 4 67 8 75 10 8 2 42 7
75 10 33 4 71 8 85 10 14 2 48 6 75 9 28 3 73 8 101 11 29 3 83 8 120 10 38 3
89 8 114 10 48 4 162 13 275 20 39 3 138 8 220 11 83 3 151 7 152 8 5 4 878
-3 978 -8z m12243 -15589 c130 -33 245 -141 291 -273 20 -59 20 -67 18 -2099
-2 -1122 -6 -2056 -10 -2075 -4 -19 -13 -60 -19 -90 -72 -370 -291 -738 -573
-965 -28 -22 -52 -43 -55 -46 -26 -32 -265 -171 -360 -209 -30 -12 -64 -26
-75 -31 -58 -24 -205 -65 -270 -74 -22 -3 -46 -8 -54 -11 -7 -2 -50 -7 -95
-11 -110 -9 -23140 -9 -23241 0 -490 45 -948 317 -1226 728 -66 98 -65 96
-123 214 -68 139 -118 288 -141 425 -3 19 -8 42 -10 50 -15 56 -17 381 -17
2150 l0 1985 21 64 c45 132 156 234 288 264 39 9 3075 12 12840 11 7033 -1
12798 -4 12811 -7z"/>
<path d="M9255 22339 c-141 -22 -264 -70 -380 -149 -109 -75 -218 -203 -281
-330 -40 -81 -79 -221 -84 -300 -2 -30 -3 -658 -3 -1395 0 -1339 0 -1340 21
-1428 100 -407 457 -683 868 -672 77 3 117 8 209 29 74 17 205 81 284 139 185
135 316 355 347 582 4 28 7 644 8 1370 1 1392 0 1431 -45 1565 -65 198 -201
367 -384 477 -54 32 -192 88 -240 98 -16 3 -41 8 -55 11 -43 9 -213 11 -265 3z"/>
<path d="M13100 22343 c-291 -34 -550 -214 -680 -472 -51 -102 -74 -177 -87
-291 -4 -30 -7 -658 -7 -1395 0 -1032 3 -1355 12 -1405 50 -258 205 -477 428
-603 189 -106 401 -138 624 -93 134 28 309 126 420 236 80 80 182 239 204 320
30 111 37 140 42 180 9 62 8 2706 -1 2778 -9 70 -49 200 -83 267 -117 232
-330 400 -588 461 -63 15 -221 24 -284 17z"/>
<path d="M16866 22334 c-132 -25 -242 -71 -356 -147 -57 -39 -166 -148 -208
-208 -75 -111 -135 -263 -149 -382 -9 -79 -9 -2689 0 -2778 12 -120 65 -259
144 -377 51 -78 202 -225 247 -241 6 -2 28 -15 49 -28 67 -42 186 -84 287
-100 85 -14 260 -6 343 16 236 62 434 214 550 423 48 86 94 229 103 319 9 96
9 2651 0 2748 -29 305 -245 587 -537 704 -145 58 -331 78 -473 51z"/>
<path d="M20685 22334 c-320 -56 -586 -291 -683 -604 -13 -41 -19 -72 -30
-155 -14 -101 -7 -2729 7 -2802 60 -313 291 -574 589 -668 353 -112 743 14
961 309 90 122 155 284 167 419 9 94 9 2688 0 2747 -12 83 -17 105 -45 187
-92 268 -327 483 -606 554 -101 25 -255 31 -360 13z"/>
<path d="M24560 22343 c-336 -40 -626 -272 -728 -583 -47 -143 -47 -136 -46
-1577 1 -1487 -2 -1415 60 -1569 42 -107 102 -200 179 -278 87 -89 105 -104
191 -153 142 -83 301 -123 463 -118 89 3 233 28 256 44 6 4 33 16 60 26 75 27
202 113 273 186 91 91 146 178 200 311 21 50 42 146 48 215 9 93 9 2630 0
2719 -33 342 -277 640 -607 742 -36 11 -83 23 -105 27 -42 8 -203 13 -244 8z"/>
<path d="M28385 22343 c-128 -13 -285 -69 -392 -139 -32 -21 -94 -75 -138
-119 -115 -115 -184 -238 -226 -402 l-23 -88 0 -1380 c0 -759 4 -1398 8 -1420
45 -257 206 -490 426 -617 156 -90 376 -133 544 -106 28 4 65 10 83 13 17 2
60 15 95 29 186 69 330 183 434 339 43 65 97 180 109 232 2 6 7 28 13 50 6 22
14 67 18 100 11 101 7 2702 -5 2770 -17 101 -21 114 -46 181 -44 117 -126 240
-215 321 -87 79 -111 96 -205 143 -91 46 -170 73 -250 86 -39 6 -191 11 -230
7z"/>
<path d="M32180 22339 c-25 -4 -63 -10 -85 -14 -65 -11 -179 -59 -262 -111
-86 -53 -214 -175 -258 -245 -73 -114 -128 -252 -142 -357 -9 -70 -11 -2737
-1 -2807 9 -69 53 -203 88 -269 131 -250 371 -422 645 -464 167 -24 415 17
525 88 8 6 22 13 30 17 37 16 129 86 178 133 93 92 175 218 215 335 47 137 47
110 44 1595 l-2 1395 -23 75 c-96 313 -339 544 -648 616 -77 18 -235 25 -304
13z"/>
<path d="M12899 13396 c-2 -2 -53 -7 -114 -11 -60 -3 -121 -8 -135 -10 -14 -2
-56 -6 -95 -10 -38 -3 -77 -8 -85 -10 -8 -2 -42 -6 -75 -10 -474 -49 -1182
-250 -1653 -467 -46 -21 -85 -38 -88 -38 -6 0 -285 -140 -348 -174 -168 -92
-306 -176 -466 -281 -357 -237 -637 -468 -965 -799 -663 -668 -1148 -1454
-1448 -2346 -74 -219 -165 -556 -192 -711 -3 -19 -10 -52 -15 -74 -5 -22 -12
-62 -16 -90 -3 -27 -7 -52 -9 -55 -2 -3 -6 -27 -10 -55 -3 -27 -9 -66 -13 -85
l-8 -35 -1169 -1 c-894 -1 -1188 -4 -1245 -14 -287 -49 -524 -229 -644 -491
-92 -202 -98 -468 -14 -670 78 -188 229 -353 400 -440 75 -38 189 -76 258 -85
30 -4 585 -8 1232 -8 647 -1 1179 -3 1181 -6 3 -3 8 -25 11 -50 4 -25 9 -56
11 -70 3 -14 7 -41 10 -60 3 -19 17 -93 31 -165 28 -144 28 -140 44 -210 6
-27 13 -58 15 -67 14 -68 105 -381 140 -483 41 -120 110 -305 126 -342 11 -23
19 -44 19 -48 0 -11 143 -323 198 -430 116 -228 281 -505 413 -695 105 -151
118 -170 129 -183 6 -6 24 -30 41 -52 279 -367 598 -700 964 -1005 630 -526
1382 -927 2174 -1160 41 -12 81 -23 90 -26 9 -2 59 -15 111 -29 52 -14 107
-27 122 -30 16 -3 56 -12 90 -20 129 -30 402 -77 518 -90 30 -4 66 -8 80 -10
49 -8 169 -18 366 -31 197 -13 681 -7 834 10 19 3 67 7 105 10 39 4 81 8 95
10 14 3 52 7 85 11 32 4 67 8 76 10 9 2 40 6 70 10 30 4 56 8 59 10 3 2 25 6
50 9 25 3 56 8 70 11 14 3 39 8 55 11 25 4 268 57 315 69 22 5 254 70 335 94
92 26 377 129 490 176 255 105 496 223 729 357 66 37 123 68 128 68 4 0 8 4 8
8 0 5 11 14 25 20 79 36 502 335 660 467 327 271 622 566 866 865 101 123 246
316 312 415 26 39 50 75 55 80 8 10 118 185 137 217 6 9 32 54 58 100 26 46
52 90 57 98 9 14 117 221 146 280 26 53 94 201 120 262 66 156 122 298 118
298 -3 0 1 10 7 22 13 24 106 298 113 332 3 12 14 53 26 91 59 199 146 601
166 775 3 30 8 57 11 60 6 7 3174 6 3178 -1 2 -3 7 -28 10 -55 4 -27 13 -85
20 -129 15 -85 17 -96 35 -190 35 -187 124 -520 201 -750 127 -380 356 -876
540 -1170 14 -22 28 -47 32 -55 7 -16 108 -170 192 -292 46 -68 209 -288 246
-333 208 -252 481 -540 689 -728 327 -295 711 -569 1113 -796 80 -45 413 -210
497 -247 114 -49 273 -115 285 -118 6 -2 21 -8 35 -13 54 -22 360 -124 460
-152 126 -36 371 -97 426 -105 21 -4 55 -11 74 -16 38 -10 245 -45 325 -55 28
-3 59 -8 70 -10 23 -5 100 -13 195 -21 36 -2 76 -7 90 -9 126 -23 733 -23 985
-1 22 2 74 7 115 11 41 3 88 8 105 10 16 2 52 7 80 10 90 12 166 23 210 31 10
2 37 6 60 10 22 3 92 16 155 29 654 133 1301 379 1855 705 50 29 99 58 110 64
91 52 314 203 465 315 71 52 269 209 280 221 3 3 21 18 40 34 191 156 542 510
711 716 29 36 58 70 64 76 5 6 21 26 35 44 14 19 36 48 50 64 26 32 69 90 157
211 202 279 427 671 583 1015 155 342 312 803 375 1099 2 9 10 45 19 81 17 73
17 75 44 220 22 112 27 147 38 225 3 28 8 52 11 55 2 3 539 5 1191 6 910 0
1200 3 1244 13 32 7 61 13 65 13 13 1 105 37 153 60 242 118 421 359 464 624
44 278 -49 562 -248 753 -120 117 -249 185 -426 226 -60 14 -317 18 -1287 18
-640 0 -1163 3 -1164 6 0 3 -2 17 -4 31 -5 30 -15 94 -21 135 -5 32 -63 330
-70 355 -2 8 -12 51 -23 95 -10 44 -29 114 -40 155 -12 41 -28 100 -36 130
-78 284 -253 720 -425 1055 -182 353 -435 745 -652 1010 -190 232 -240 287
-458 505 -281 282 -445 421 -799 679 -308 223 -787 487 -1196 656 -168 70
-503 186 -665 230 -52 15 -99 27 -105 29 -5 2 -28 6 -50 11 -22 4 -47 11 -55
15 -8 4 -33 10 -55 13 -22 4 -65 13 -95 21 -30 7 -75 17 -100 21 -25 4 -54 9
-65 11 -67 13 -185 34 -215 38 -116 16 -202 26 -255 31 -33 3 -71 8 -85 10
-163 26 -979 27 -1116 1 -10 -2 -55 -7 -98 -11 -43 -4 -86 -8 -95 -10 -9 -1
-41 -6 -72 -9 -31 -4 -65 -8 -75 -10 -11 -2 -41 -7 -67 -10 -48 -7 -67 -11
-117 -21 -14 -2 -38 -7 -55 -10 -16 -3 -41 -7 -55 -10 -14 -3 -38 -8 -55 -10
-25 -5 -105 -24 -257 -61 -10 -2 -27 -6 -37 -8 -105 -24 -483 -142 -548 -172
-17 -7 -38 -14 -46 -14 -9 0 -19 -4 -22 -10 -3 -5 -13 -10 -22 -10 -8 0 -101
-36 -205 -81 -379 -162 -711 -342 -1043 -567 -123 -84 -281 -197 -295 -212 -3
-3 -25 -21 -50 -40 -266 -204 -618 -539 -845 -805 -33 -38 -62 -72 -65 -75
-25 -23 -229 -288 -301 -390 -71 -100 -202 -299 -238 -360 -17 -30 -37 -64
-44 -75 -157 -254 -357 -678 -483 -1027 -47 -132 -148 -453 -158 -505 -2 -10
-12 -47 -21 -83 -9 -36 -18 -72 -20 -81 -2 -9 -12 -59 -24 -110 -11 -52 -22
-107 -25 -123 -3 -16 -10 -52 -16 -80 -5 -28 -12 -67 -14 -86 -5 -37 -23 -143
-25 -147 -1 -2 -1 -7 -1 -12 0 -12 -3175 -9 -3176 4 -1 18 -15 109 -24 160 -5
28 -12 66 -15 85 -3 19 -12 67 -20 105 -8 39 -16 81 -19 95 -2 14 -16 72 -31
130 -14 58 -28 112 -30 120 -9 42 -37 148 -44 170 -5 14 -19 59 -31 100 -13
41 -29 89 -36 107 -8 17 -14 36 -14 42 0 30 -152 414 -240 606 -80 176 -240
476 -325 610 -124 197 -310 468 -377 550 -9 11 -49 61 -89 110 -209 260 -518
580 -749 775 -29 25 -58 50 -64 56 -6 5 -67 55 -136 110 -701 558 -1511 952
-2390 1162 -90 22 -261 58 -320 67 -19 3 -48 8 -65 11 -16 2 -55 9 -85 14 -30
5 -77 12 -105 15 -27 3 -63 8 -80 10 -97 12 -127 16 -190 21 -38 3 -88 8 -110
10 -51 6 -751 15 -756 10z m501 -1730 c145 -6 208 -11 288 -21 23 -3 63 -8 90
-11 26 -3 88 -12 137 -20 904 -148 1729 -569 2376 -1214 200 -199 230 -234
462 -530 7 -8 49 -69 93 -135 286 -424 490 -878 617 -1375 22 -85 28 -114 43
-200 3 -14 9 -38 14 -55 5 -16 12 -55 15 -85 4 -30 8 -57 10 -60 2 -3 6 -30 9
-60 4 -30 8 -66 11 -80 33 -192 40 -815 11 -990 -3 -14 -7 -50 -11 -81 -3 -31
-7 -65 -9 -75 -2 -11 -6 -41 -10 -69 -27 -198 -112 -539 -190 -762 -172 -492
-435 -960 -760 -1353 -99 -120 -133 -156 -291 -315 -170 -171 -199 -197 -362
-328 -364 -292 -777 -527 -1198 -682 -55 -20 -109 -41 -120 -45 -26 -11 -214
-68 -280 -86 -56 -15 -319 -74 -350 -78 -22 -4 -65 -11 -95 -16 -85 -15 -111
-18 -170 -25 -30 -3 -68 -7 -85 -9 -188 -24 -780 -25 -875 -1 -8 2 -45 6 -82
10 -37 3 -77 8 -90 10 -42 7 -212 36 -243 41 -201 34 -655 171 -810 244 -11 5
-49 21 -85 36 -96 39 -319 151 -445 224 -457 263 -871 616 -1217 1035 -138
168 -329 449 -425 624 -201 366 -335 703 -427 1067 -19 77 -38 155 -41 174 -3
19 -8 43 -11 52 -6 20 -12 51 -19 98 -3 20 -7 47 -10 60 -3 14 -10 63 -15 110
-6 47 -12 99 -14 115 -28 201 -29 682 -2 940 8 74 19 162 22 180 5 26 13 72
19 110 2 17 6 41 9 55 3 14 13 61 22 105 9 44 25 114 36 155 11 41 21 79 23
85 10 51 96 323 120 380 7 17 29 73 50 125 54 137 182 398 254 518 33 57 61
105 61 107 0 10 201 301 262 380 280 362 651 713 1016 963 367 250 776 446
1212 580 74 23 337 88 390 97 19 3 53 10 75 15 22 5 60 11 85 14 25 3 54 8 66
10 20 4 48 7 174 21 30 4 69 8 85 10 17 2 100 7 185 10 85 4 156 8 157 9 2 1
29 0 243 -8z m15265 -1 c83 -3 164 -8 180 -10 17 -2 61 -6 98 -10 37 -3 78 -8
90 -11 12 -2 42 -6 67 -9 190 -22 555 -109 775 -185 385 -133 688 -283 1020
-505 808 -540 1401 -1305 1720 -2215 25 -74 48 -144 51 -154 2 -11 10 -40 18
-65 13 -40 73 -278 81 -321 1 -8 6 -33 10 -55 17 -83 24 -123 30 -170 3 -22 7
-53 10 -70 48 -323 53 -838 9 -1140 -41 -290 -60 -388 -120 -609 -108 -405
-271 -781 -497 -1156 -29 -47 -55 -89 -60 -95 -4 -5 -48 -68 -98 -140 -253
-360 -597 -714 -954 -982 -234 -176 -547 -364 -780 -468 -33 -15 -82 -37 -110
-50 -257 -116 -678 -245 -950 -289 -125 -21 -229 -36 -278 -41 -32 -4 -67 -8
-77 -10 -121 -23 -718 -23 -870 0 -14 2 -52 7 -85 10 -57 5 -76 7 -155 21 -19
3 -46 7 -60 9 -44 6 -282 56 -335 70 -27 8 -84 23 -125 34 -41 11 -115 34
-165 51 -49 17 -97 33 -106 35 -85 18 -540 226 -687 313 -29 18 -55 32 -57 32
-25 0 -489 322 -565 392 -14 13 -38 34 -55 46 -16 13 -64 55 -107 93 -570 518
-989 1154 -1228 1868 -96 287 -166 589 -196 846 -2 22 -7 58 -9 80 -16 139
-20 230 -20 480 0 245 6 372 20 465 2 14 7 54 11 90 10 95 22 173 29 200 3 8
7 31 10 50 3 19 14 76 25 125 11 50 23 101 26 115 2 14 8 34 11 45 4 11 8 25
9 30 17 85 109 363 173 525 49 122 210 449 280 566 183 309 447 651 672 873
180 177 290 273 468 410 98 75 328 232 404 275 23 13 76 43 117 66 267 153
665 315 985 400 133 36 125 34 180 44 22 4 54 12 70 17 17 5 46 11 65 13 20 3
47 7 60 10 24 5 72 13 135 22 17 2 44 6 60 8 17 2 62 8 100 12 39 3 81 8 95 9
14 2 97 7 185 10 88 4 161 8 162 9 2 1 22 1 45 0 24 -1 111 -5 193 -9z"/>
</g>
</svg>
