<?xml version="1.0" encoding="UTF-8"?>
<svg id="Layer_1" data-name="Layer 1" xmlns="http://www.w3.org/2000/svg" viewBox="0 0 50 57.33">
  <defs>
    <style>
      .cls-1 {
        fill: #9f581a;
      }

      .cls-1, .cls-2, .cls-3, .cls-4, .cls-5, .cls-6, .cls-7, .cls-8, .cls-9, .cls-10, .cls-11, .cls-12, .cls-13, .cls-14, .cls-15, .cls-16, .cls-17, .cls-18, .cls-19, .cls-20, .cls-21, .cls-22, .cls-23, .cls-24, .cls-25, .cls-26, .cls-27, .cls-28, .cls-29, .cls-30, .cls-31, .cls-32, .cls-33, .cls-34, .cls-35, .cls-36, .cls-37, .cls-38 {
        stroke-width: 0px;
      }

      .cls-2, .cls-5, .cls-9 {
        fill: #918881;
      }

      .cls-3 {
        fill: #612209;
      }

      .cls-4, .cls-9, .cls-16, .cls-23, .cls-25 {
        opacity: .8;
      }

      .cls-4, .cls-27 {
        fill: #45474c;
      }

      .cls-5 {
        opacity: .7;
      }

      .cls-6 {
        fill: #b27128;
      }

      .cls-7 {
        fill: #e4b777;
      }

      .cls-8 {
        fill: #231e17;
      }

      .cls-10 {
        fill: #142624;
      }

      .cls-11 {
        fill: #cd933b;
      }

      .cls-12 {
        fill: #934112;
      }

      .cls-13 {
        fill: #e9d4cc;
      }

      .cls-14 {
        fill: #8b4a14;
      }

      .cls-15, .cls-16, .cls-28 {
        fill: #bab5ae;
      }

      .cls-17 {
        fill: #f6e095;
      }

      .cls-18 {
        fill: #9ba29e;
      }

      .cls-19 {
        fill: #fbfaf3;
      }

      .cls-20 {
        fill: #be8335;
      }

      .cls-21 {
        fill: #482008;
      }

      .cls-22 {
        fill: #391f10;
      }

      .cls-23, .cls-38 {
        fill: #6f5f5d;
      }

      .cls-24 {
        fill: #ffedb8;
      }

      .cls-25, .cls-31 {
        fill: #184354;
      }

      .cls-26 {
        fill: #f8f1d6;
      }

      .cls-28 {
        opacity: .4;
      }

      .cls-29 {
        fill: #e0bc92;
      }

      .cls-30 {
        fill: #1f2220;
      }

      .cls-32 {
        fill: #8e5d1e;
      }

      .cls-33 {
        fill: #072a31;
      }

      .cls-34 {
        fill: #f3e9dc;
      }

      .cls-35 {
        fill: #dcae54;
      }

      .cls-36 {
        fill: #889791;
      }

      .cls-37 {
        fill: #d2c3a8;
      }
    </style>
  </defs>
  <path class="cls-9" d="M4.95,6.63c.37.43.77.86,1.15,1.29.44.58.86,1.19,1.35,1.73.76.82,1.42,1.25,1.49,1.32,4.03,4.13,7.74,8.61,11.57,12.93.1.3.46,1.01.61,1.25.27.42.81,1.1,1.08,1.35l-.2.37c-.29.34-.6.67-.88,1.02-.89-1-1.6-2.26-2.44-3.35-.71-.93-1.54-1.88-2.3-2.77C12.05,16.62,7.24,11.9,2.79,6.87c-.33-.53-.77-1.02-.88-1.66.33-.24.68-.45,1.02-.68.6.76,1.22,1.63,2.03,2.1Z"/>
  <path class="cls-16" d="M21.13,27.88c-.52.63-.94,1.35-1.56,1.89.2-.44-.22-1.71-.47-2.2C14.01,20.08,7.27,13.93,1.64,6.87l-.47-1.05c.26-.18.49-.42.74-.61.11.64.55,1.12.88,1.66,4.45,5.04,9.26,9.75,13.6,14.89.76.9,1.59,1.85,2.3,2.77.84,1.09,1.55,2.35,2.44,3.35Z"/>
  <path class="cls-34" d="M5.09,1.56c-.08.32.64,1.04.88,1.29-.28.37-.21.26-.54.14-.25-.3-.73-1-.88-1.15,0-.29.28-.26.54-.27Z"/>
  <path class="cls-38" d="M4.95,6.63c-.82-.47-1.43-1.34-2.03-2.1.08-.06.18-.14.27-.2.5.81,1.14,1.59,1.76,2.3Z"/>
  <path class="cls-5" d="M46.1,52.65c.19-.16.51-.37.47-.61.3-.03.43-.28.61-.47.11-.12.25-.18.34-.34.04-.01.13-.06.14-.07.22.24.19.32.2.34.13.9-.57,2.57-1.25,3.11-.84.67-1.68.37-2.5-.2-1.34-.92-6.1-7.84-7.61-9.71-1.81-2.24-7.36-8.74-10.12-9.03-1.63-.17-3.55,1.39-4.74,2.44-.81.71-2.83,2.86-3.62,3.76-2.47,2.81-9.73,12.61-12.15,13.97-.62.35-2.02.61-2.71.47-.04,0-.29-.26-.34-.27-2.02-.62-2.41-1.66-1.18-3.49.46-.68,1.25-1.21,1.79-1.73,0,0,.1.14.17.03.03-.05-.03-.24,0-.3.15-.35.1-.12.34-.27.02-.01.05.01.07,0,.03.14.19.18.27.27,0,0-.02.02.07.14,0,0,.02.01.07.07.01.01-.01.05,0,.07-.18-.03-.25.2-.34.27-.02.02-.12.05-.14.07-.18.15-.66.47-.68.51-.05.08-.35,1.74.1,1.86l.27.14c1.04.19,3.87-2.83,4.57-3.69.14-.17.25-.62.27-.64,3.64-4.39,7.99-9.16,11.91-13.33.01-.01.06-.12.07-.14.21-.23.46-.45.68-.68.04.39.74-.42,1.12-.68,4.2-2.87,6.28-1.24,9.54,1.83,1.39,1.3,5.31,5.82,6.67,7.48,1.15,1.4,6.16,8.24,7,8.76.03.02.72.24.64.07Z"/>
  <path class="cls-28" d="M47.86,51.5c.38.67.29,1.32.14,2.06-.04.18-.75,2-.81,2.1-.15.23-1.78.73-3.21-.17-1.66-1.04-6.05-7.79-7.61-9.78-1.69-2.15-7.62-9.07-10.19-9.31-2.82-.26-5.63,4.29-7.68,5.85-1.62,2.42-3.79,4.32-5.28,6.84-1.14.84-1.63,2.1-2.64,3.05-.25.34-1.19,1.84-1.29,1.96-.15.19-.36.15-.37.17-.43.52-1.15,1.86-2.44,2.57-1.96,1.08-5.42.16-6.12-.78-1.35-1.77,1.54-4.53,2.94-5.45.08-.05.2-.15.3-.07-.03.06.03.26,0,.3-.07.11-.16-.04-.17-.03-.54.51-1.34,1.04-1.79,1.73-1.22,1.83-.84,2.87,1.18,3.49.05.02.3.26.34.27.69.14,2.09-.12,2.71-.47,2.42-1.36,9.68-11.17,12.15-13.97.79-.9,2.81-3.04,3.62-3.76,1.19-1.04,3.11-2.61,4.74-2.44,2.76.29,8.31,6.8,10.12,9.03,1.51,1.87,6.27,8.79,7.61,9.71.83.57,1.67.88,2.5.2.68-.55,1.38-2.22,1.25-3.11Z"/>
  <path class="cls-15" d="M29.65,26.05c-.5-.44-.38-.45-.41-.47.2.09.29.42.47.17.31-.46,2.53-3.11,2.57-3.32.02-.11-.03-.15-.07-.24,1.01-1.02,1.92-2.17,2.91-3.21.28-.3.37-.24.41-.27.01-.01-.07-.15.14-.37,0,0,.02.05.2-.14.02-.02.06.13.54-.37.66-.7,1.31-1.45,1.96-2.17.3-.32.81-.89.68-.98.05-.05.09-.09.14-.14l.1.07c1.37-1.45,2.78-2.91,4.03-4.43l-.14-.03c1.72-1.87,3.45-3.73,5.14-5.62-.27,1.25-.9,1.49-1.22,1.93-.04.06-.04.3-.27.61-1.38,1.82-4.4,5.05-6.02,6.97-.7.83-1.32,1.75-2.03,2.57-2.83,3.3-5.93,6.42-8.46,9.95-.51-.49-.65-.48-.68-.51Z"/>
  <path class="cls-23" d="M22.55,26.19s-.27.36-.54.68l.2-.37c-.27-.25-.81-.94-1.08-1.35-.15-.24-.51-.95-.61-1.25.68.77,1.35,1.54,2.03,2.3Z"/>
  <path class="cls-38" d="M8.94,10.96c-.07-.07-.73-.5-1.49-1.32-.49-.54-.92-1.14-1.35-1.73.93,1.02,2.01,1.93,2.84,3.05Z"/>
  <path class="cls-2" d="M29.25,25.58s.01-.06,0-.07l2.17-2.57s.09-.09.14-.14c.21-.21.47-.4.68-.61.04.09.09.12.07.24-.04.21-2.26,2.86-2.57,3.32-.19.25-.27-.08-.47-.17Z"/>
  <path class="cls-25" d="M31.21,34.18s.02.08.14.27c.3.5,6.79,7.22,7.78,8.56,1.25.83,6.49,7.03,6.9,7.31.3.2.28,0,.34.03.47.22.54.8.81,1.22-.18.19-.31.44-.61.47.04-.75-2.6-2.72-3.86-3.99-2.29-2.31-4.2-4.98-6.36-7.41-2.11-2.37-5.02-5.45-7.31-7.61-.69-.65-1.26-1.33-2.2-1.62-1.22-.38-1.9.39-2.1.41-.06,0,0-.18-.07-.2-.07-.02-.93.84-1.05.95-.31.29-.58.58-.88.88l-.2-.07c.72-.72,1.77-2.14,2.5-2.98.14-.16,1.03-1.23,1.12-1.22l5.04,5.01Z"/>
  <path class="cls-23" d="M29.04,33.03c2.29,2.16,5.2,5.25,7.31,7.61,2.16,2.43,4.08,5.1,6.36,7.41.9,1.6,2.09,3.06,3.52,4.23,0,.41-.71-.48-.14.37.08.17-.61-.05-.64-.07-.84-.52-5.86-7.36-7-8.76-1.36-1.66-5.28-6.17-6.67-7.48-3.26-3.06-5.35-4.7-9.54-1.83-.38.26-1.08,1.07-1.12.68.55-.58,1.06-1.19,1.62-1.76.3-.3.57-.59.88-.88-.05.45.7-.3,1.59-.54,1.85-.51,2.31.48,3.82,1.02Z"/>
  <path class="cls-38" d="M3.94,51.16c-.09.59-.03,1.25.3,1.76,1.66-.35,1.38-.88,1.46-.95.12-.11.36-.22.61-.47.3-.31.79-.57.81-1.02.42.11.9-.93,1.35-1.15-.02.03-.14.48-.27.64-.7.86-3.53,3.87-4.57,3.69l-.27-.14c-.45-.12-.15-1.78-.1-1.86.02-.04.49-.36.68-.51Z"/>
  <path class="cls-4" d="M46.57,52.04c.04.24-.28.45-.47.61-.57-.86.14.04.14-.37-1.43-1.17-2.62-2.63-3.52-4.23,1.25,1.27,3.9,3.24,3.86,3.99Z"/>
  <path class="cls-27" d="M4.14,51.64c.07.56.03,1.24.68.95.08-.04.63-.52.68-.68,0,0,.1,0,.2.07-.07.07.2.6-1.46.95-.33-.51-.39-1.17-.3-1.76.02-.02.12-.05.14-.07-.04.37.06.51.07.54Z"/>
  <path class="cls-27" d="M29.04,33.03c-1.52-.54-1.97-1.52-3.82-1.02-.89.24-1.64.99-1.59.54.12-.11.98-.97,1.05-.95.07.02,0,.21.07.2.19-.01.88-.78,2.1-.41.94.29,1.51.97,2.2,1.62Z"/>
  <path class="cls-31" d="M4.82,52.58c-.65.29-.61-.39-.68-.95.44.17.57.53.68.95Z"/>
  <path class="cls-35" d="M16.25,11.71c-.08,0-.04.08-.14.2-.01.02-.14-.1-.2.34-.06-.06-.06.19-.14.1-1.93-2.14-3.94-4.25-5.82-6.43-1.23-1.42-2.44-2.9-3.49-4.43l-.24.34h-.07c-.26-.47-.41-.37-.54-.81.15-.13.29-.65.71-.54,3.08,3.94,6.56,7.53,9.91,11.23Z"/>
  <path class="cls-14" d="M5.63,1.02c.13.45.28.35.54.81.05.09-.07.16-.07.17.24.43.67.73.74,1.25-.41-.05-1.2-2.01-1.32-2.03-.37.4.37.9.44,1.05.17.35.06.52.14.64h-.07c0-.08-.06-.06-.07-.07-.24-.25-.96-.97-.88-1.29.09-.37.51-.52.54-.54Z"/>
  <path class="cls-22" d="M6.1,2.91c1,1.68,15.67,17.43,18.31,20.51.15.02.34-.32.44-.41.09-.08.14-.15.2-.2.15.03-.02.2-.07.27-.08.11-.42.47-.41.58,8.11,8.14,15.69,16.78,23.65,25.07.25.16.51.28.78.41.01,0,.11,0,.27.14-.38.39-.39.25-.41.27-.6-.83-.8-.51-.85-.54-.52-.37-2.22-2.32-2.88-2.98-3.31-3.64-6.71-7.2-10.08-10.79-.81-.87-1.72-2.08-2.37-2.77-1.12-1.19-2.39-2.27-3.52-3.45-2.1-2.2-4.11-4.48-6.29-6.6-1.9-2.39-3.99-4.62-6.02-6.9-3.66-4.11-7.37-8.17-11.03-12.28l.2-.3h.07Z"/>
  <path class="cls-20" d="M45.08,42.77c1.68,1.73,3.21,3.6,4.87,5.35,0,.02,0,.05,0,.07-.18-.03-.18.33-.27.51-.38.31-5.7-6.37-6.63-7.14l.3-.54c.59.57,1.15,1.17,1.73,1.76Z"/>
  <path class="cls-1" d="M43.05,41.55c.93.77,6.25,7.45,6.63,7.14.09-.18.09-.54.27-.51.14.57-.03.43-.68,1.08-.16-.15-.26-.13-.27-.14-.02-.25.09,0,.27-.1-2.25-1.91-4.06-4.38-6.09-6.56-.31-.33-.58-.41-.61-.44.09-.16.34-.3.2-.47l.17-.14c.1.07.1.13.1.14Z"/>
  <path class="cls-11" d="M44.81,42.23s.05.24.27.54c-.57-.59-1.14-1.18-1.73-1.76l-.3.54s0-.06-.1-.14l-.17.14c-1.66-1.83-3.34-3.65-5.01-5.48-1.31-1.44-2.6-2.91-3.93-4.33.27-.24.15-.71,0-1.02,3.7,3.79,7.01,7.97,10.96,11.5Z"/>
  <path class="cls-11" d="M15.91,12.25s-.06.17.14.14c2.95,3.58,6.05,7.02,9.27,10.35-.13-.1-.18-.01-.27.07-.06.05-.11.12-.2.2-.08,0-.06-.07-.07-.07.1.02,0-.29,0-.3-.2-.34-4.64-4.96-5.41-5.82-.92-1.02-1.72-2.16-2.64-3.18-.4-.44-1.05-.96-1.29-1.22-3.13-3.48-6.34-6.89-9.2-10.59l.24-.34c1.05,1.53,2.26,3.01,3.49,4.43,1.88,2.18,3.89,4.29,5.82,6.43.08.09.08-.16.14-.1Z"/>
  <path class="cls-20" d="M25.32,22.74c2.76,3.05,5.71,5.97,8.53,9,1.32,1.42,2.61,2.89,3.93,4.33-.38-.23-.24.05-.37,0-.34-.14-4.06-4.49-4.7-5.18-1.87-2-3.85-3.89-5.75-5.85-.71-.74-1.19-1.57-1.96-1.96.05-.07.22-.24.07-.27.1-.08.14-.17.27-.07Z"/>
  <path class="cls-32" d="M16.12,11.91c.1.15.13.41-.07.47-.19.03-.12-.12-.14-.14.06-.44.19-.32.2-.34Z"/>
  <path class="cls-35" d="M21.13,17.12c1.58,1.74,3.17,3.48,4.84,5.14l.17-.14c.01.22.33.4.47.54.14.14.26.27.41.41.14.14.25.28.41.41.32.26.1.69,1.22-.61h.07c-1.21,1.52-.56,1.29-.47,1.42.07.11.11.22.2.34.12.16.19.19.2.2.13.17.26.31.41.47.07.08.14.13.2.2.01.01-.01.06,0,.07.02.02-.09.03.41.47.68.93,3.91,4.09,4.2,4.67.15.31.27.78,0,1.02-2.81-3.03-5.76-5.95-8.53-9-3.22-3.34-6.32-6.77-9.27-10.35.2-.07.16-.32.07-.47.1-.13.05-.2.14-.2.22.24.58.45.81.71,1.39,1.53,2.67,3.17,4.06,4.7Z"/>
  <path class="cls-24" d="M25.22,21.99l.24.1c.17.4-.13.26-.24-.1Z"/>
  <path class="cls-20" d="M24.78,22.94c-.07-.02-.18.06-.34-.17L6.85,3.25c-.07-.52-.5-.83-.74-1.25,0,0,.12-.08.07-.17h.07c2.87,3.7,6.08,7.11,9.2,10.59.23.26.89.78,1.29,1.22.92,1.02,1.72,2.16,2.64,3.18.77.86,5.21,5.48,5.41,5.82,0,.01.1.33,0,.3Z"/>
  <path class="cls-1" d="M6.85,3.25l17.6,19.52c.16.22.27.15.34.17,0,0-.02.07.07.07-.1.09-.29.42-.44.41C21.78,20.34,7.1,4.59,6.1,2.91c-.07-.12.03-.29-.14-.64-.07-.15-.81-.65-.44-1.05.12.02.91,1.98,1.32,2.03Z"/>
  <path class="cls-14" d="M26.95,25.04c-.06.01-.14.29-.14.3.21.54,7.37,7.02,8.05,8.46,2.68,2.64,5.15,5.47,7.71,8.22.03.03.3.11.61.44,2.03,2.18,3.84,4.66,6.09,6.56-.18.11-.29-.15-.27.1-.27-.13-.53-.24-.78-.41-7.96-8.29-15.54-16.94-23.65-25.07-.01-.1.32-.47.41-.58.78.39,1.25,1.23,1.96,1.96Z"/>
  <path class="cls-6" d="M37.77,36.07c1.67,1.83,3.34,3.65,5.01,5.48.13.17-.12.31-.2.47-2.56-2.75-5.04-5.58-7.71-8.22-.68-1.43-7.84-7.92-8.05-8.46,0-.02.07-.29.14-.3,1.9,1.97,3.88,3.86,5.75,5.85.64.69,4.37,5.03,4.7,5.18.13.05,0-.23.37,0Z"/>
  <path class="cls-6" d="M9.55,42.16c-.83,1.15-4.43,5.53-5.14,6.16-.03.03-.02-.19-.61.41-.1-.11-.28-.18-.34-.34,1.08-1.19,2.12-2.44,3.18-3.65.84-.97,1.66-1.95,2.5-2.91.05.06.38.33.41.34Z"/>
  <path class="cls-14" d="M5.76,48.32c-.58.64-1.04,1.45-1.76,1.96-.01.01-.05-.01-.07,0-1.75-1.56-1.11-1.19-.47-1.89.05.16.24.23.34.34.08.09.14.42.44.41.43-.01,1.19-1.18,1.52-.81Z"/>
  <path class="cls-20" d="M23.02,26.8c-.23.69-6.67,7.99-7.71,9.17-.13.15-.22.08-.27.14-.66.75-1.32,1.79-2.03,2.57-.38.42-3.08,3.42-3.32,3.49-.03,0-.1,0-.14,0-.03,0-.36-.28-.41-.34,2.89-3.29,6.76-7.42,9.41-10.76.26-.33.9-1.03,1.02-1.29.62-.55,1.04-1.27,1.56-1.89.28-.34.59-.68.88-1.02.27-.32.51-.64.54-.68,0,0,.13-.06.14-.07.09.43.5.21.34.68Z"/>
  <path class="cls-20" d="M46.23,1.35c.09.1.24.18.34.27.13.12.22.34.47.41-.05.08-.21.33-.2.41h-.07c.01-.14-.16-.28-.27-.34-.6-.32-.66.54-1.35,1.39-1.07,1.31-3.46,3.93-4.74,5.35-4.36,4.84-8.89,9.54-13.4,14.25-.14-.14-.27-.27-.41-.41,4.12-4.25,8.09-8.65,12.11-12.99.96-1.04,2.09-1.96,3.05-3.01.53-.58,3.19-3.68,3.59-4.2.07-.09-.13-.36.61-.68-1.16-1.22-.04-.14.03-.17.07-.03-.06-.22.24-.27Z"/>
  <path class="cls-11" d="M46.23,1.35c-.3.05-.17.24-.24.27-.07.03-1.19-1.05-.03.17-.74.32-.54.58-.61.68-.39.51-3.05,3.61-3.59,4.2-.96,1.05-2.08,1.97-3.05,3.01-1.06.84-2.02,1.89-3.08,2.77-.56.3-.13-.14-.64.2,1.95-2.31,4.13-4.42,6.16-6.67,1.56-1.73,2.97-3.6,4.53-5.31.05.19.37.51.54.68Z"/>
  <path class="cls-11" d="M26.61,22.67c-.14-.14-.46-.32-.47-.54,1.47-1.68,3.63-3.63,4.94-5.35.93-.79,3.26-3.69,3.93-4.13.51-.34.08.1.64-.2,1.06-.88,2.02-1.94,3.08-2.77-4.02,4.34-7.99,8.74-12.11,12.99Z"/>
  <path class="cls-6" d="M47.11,1.15c.01.39-.3.18-.54.47-.1-.09-.24-.18-.34-.27-.17-.17-.49-.49-.54-.68.13-.15.26-.27.41-.41.36.1.64.83,1.02.88Z"/>
  <path class="cls-14" d="M47.05,2.03c-.26-.07-.34-.28-.47-.41.24-.29.55-.08.54-.47.13.02.23,0,.34-.07.46.64.02.35-.41.95Z"/>
  <path class="cls-11" d="M47.45,1.08c-.11.07-.21.08-.34.07-.37-.05-.65-.78-1.02-.88.02-.01-.06-.18.3-.27.32.37.76.68,1.05,1.08Z"/>
  <path class="cls-1" d="M46.5,2.1c.02.13-.07.27-.14.37-.8,1.21-6.5,7.46-7.99,9.1-3.62,4-7.38,7.87-10.96,11.91-.16-.13-.26-.27-.41-.41,4.51-4.7,9.04-9.41,13.4-14.25,1.28-1.42,3.67-4.04,4.74-5.35.69-.85.76-1.71,1.35-1.39Z"/>
  <path class="cls-3" d="M38.79,11.5c-1.02,1.14-2.09,2.22-3.11,3.35-.05.05.12.15.07.2-1.86,2.05-3.92,3.94-5.75,6.02-.49.56-.87,1.24-1.35,1.79-1.12,1.3-.9.87-1.22.61,3.58-4.04,7.34-7.91,10.96-11.91l.41-.07Z"/>
  <path class="cls-3" d="M46.77,2.44c-2.56,3.11-5.29,6.07-7.99,9.07l-.41.07c1.49-1.64,7.19-7.89,7.99-9.1.07-.1.16-.24.14-.37.11.06.29.2.27.34Z"/>
  <path class="cls-1" d="M23.63,26.46c-.12.14-.18.32-.27.47l-.34-.14c.16-.47-.25-.24-.34-.68.01-.01-.01-.11.14-.27.25-.29.32.11.81.61Z"/>
  <path class="cls-22" d="M24.78,27.34c-.08,0-.06.07-.07.07-.25,0-.27.08-.47.34-6.46,7.77-13.16,15.34-19.96,22.81-.08-.09-.24-.13-.27-.27.72-.51,1.18-1.32,1.76-1.96,3.47-3.87,6.86-7.82,10.35-11.67,0-.25-1.49-.65.27-.27,1.76-2.45,6.51-7.16,7.65-9.51,0-.01.1.03.07-.27.23.24.45.51.68.74Z"/>
  <path class="cls-14" d="M24.04,26.87c-1.14,2.35-5.89,7.06-7.65,9.51-1.76-.38-.27.02-.27.27-3.49,3.85-6.88,7.8-10.35,11.67-.33-.37-1.09.8-1.52.81-.3.01-.36-.31-.44-.41.59-.59.58-.38.61-.41.33.6.58-.09.95-.24l4.74-5.65c.75-.61,5.32-5.6,5.41-5.99.02-.09-.17-.29-.14-.34.06-.08.33.01.51-.1.39-.25,5.48-6.17,6.06-6.94.37-.49,1.09-1.58,1.42-2.13.09-.16.15-.33.27-.47.13.13.32.22.41.41Z"/>
  <path class="cls-1" d="M9.69,42.16l.41.27-4.74,5.65c-.37.14-.62.84-.95.24.71-.63,4.31-5.01,5.14-6.16.04,0,.11,0,.14,0Z"/>
  <path class="cls-6" d="M23.36,26.93c-.33.55-1.05,1.64-1.42,2.13-.58.77-5.67,6.69-6.06,6.94-.18.12-.45.03-.51.1-.04.05.16.25.14.34-.1.39-4.66,5.38-5.41,5.99l-.41-.27c.23-.07,2.93-3.06,3.32-3.49.71-.79,1.37-1.83,2.03-2.57.05-.06.14.02.27-.14,1.05-1.18,7.48-8.48,7.71-9.17l.34.14Z"/>
  <path class="cls-20" d="M47.86,3.32c-.77.27-.79.97-.85,1.02-.02.01-.2-.14-.41.07-1.2,1.22-2.19,2.62-3.28,3.93l-.3-.14c-2.65,3.04-5.43,5.97-8.09,9-.22,0-.29-.08-.3-.07-.07.04-.01.17-.03.2l-.34-.41c4.31-4.72,8.58-9.46,12.86-14.21,0,0,.13-.06.14-.07.19.24.41.45.61.68Z"/>
  <path class="cls-37" d="M47.11,2.71c-4.27,4.75-8.55,9.49-12.86,14.21-1.29,1.41-4.84,5.06-5.55,5.96h-.07c.48-.56.86-1.23,1.35-1.79,1.83-2.08,3.89-3.97,5.75-6.02.05-.05-.12-.15-.07-.2,1.02-1.13,2.09-2.21,3.11-3.35,2.69-2.99,5.42-5.96,7.99-9.07h.07s.22.27.27.27Z"/>
  <path class="cls-34" d="M49.35,3.65c-.07.09-1.01,1.09-1.02.81.02-.1.16-.1.14-.34,0-.01-.06-.18-.07-.2,0-.1.12-.05.14-.1,0,0-.1-.06-.07-.17.41.26.57-.15.81-.47.04-.05.19-.14.2-.27.01.02.15-.14.2-.03.13.28-.18.58-.34.78Z"/>
  <path class="cls-17" d="M48.33,3.45s.13.2.14.2c-.03.11.07.16.07.17-.01.06-.15,0-.14.1,0-.02-.15-.09-.27-.27-.12-.18-.14-.19-.27-.34-.2-.23-.42-.44-.61-.68.04-.04.09-.09.14-.14.35.29.6.65.95.95Z"/>
  <path class="cls-22" d="M48.33,4.47s0,.05,0,.07c-1.69,1.89-3.42,3.75-5.14,5.62-1.34,1.46-2.65,2.94-3.99,4.4-.04.04-.09.09-.14.14-1.07,1.16-2.22,2.25-3.25,3.45-.07-.14-.11-.34-.27-.2,0-.04.12-.09-.2-.68.02,0,.05,0,.07,0,.32.03.44.19.78.14,4.06-4.44,7.98-9.05,12.28-13.26.03.24-.12.24-.14.34Z"/>
  <path class="cls-20" d="M34.59,17.32c-.3.52-1.06,1.62-1.42,2.06-.9,1.09-1.94,1.7-2.37,2.61-.08-.04-.1-.05-.2-.07-.01,0-.03-.17-.27.03-.12.1-1.45,1.94-2.1,2.33-.08-.13-.74.1.47-1.42.71-.89,4.26-4.54,5.55-5.96l.34.41Z"/>
  <path class="cls-12" d="M31.01,22.54s.29.06.54.27c-.05.04-.09.09-.14.14-.02.02-.15-.02-.17,0-.77.75-1.5,1.55-2.2,2.37-.14-.16-.27-.3-.41-.47.84-.61,1.57-1.89,2.37-2.3Z"/>
  <path class="cls-6" d="M30.6,21.93c-.01.11.02.24,0,.34-.06.32-1.79,1.95-2.17,2.37-.09-.12-.13-.22-.2-.34.65-.39,1.98-2.23,2.1-2.33.24-.2.26-.04.27-.03Z"/>
  <path class="cls-1" d="M31.01,22.54c-.8.41-1.53,1.69-2.37,2.3,0-.01-.08-.04-.2-.2.37-.42,2.1-2.05,2.17-2.37.32.11.38.26.41.27Z"/>
  <path class="cls-21" d="M31.41,22.94l-2.17,2.57c-.07-.07-.13-.13-.2-.2.7-.82,1.43-1.62,2.2-2.37.02-.02.15.02.17,0Z"/>
  <path class="cls-20" d="M43.32,8.32c-.3.36-.58.77-.88,1.12-.11.13-.79.56-.68.85-2.14,2.3-4.06,4.81-6.36,6.97-.02,0-.05,0-.07,0-.09,0-.13,0-.2,0-.15-.01-.16-.07-.2-.07,2.66-3.03,5.44-5.96,8.09-9l.3.14Z"/>
  <path class="cls-6" d="M47.86,3.32c.13.15.15.16.27.34-2.03,2.29-4.28,4.39-6.36,6.63-.12-.29.57-.72.68-.85.3-.35.58-.76.88-1.12,1.09-1.31,2.09-2.71,3.28-3.93.2-.2.39-.05.41-.07.05-.04.08-.75.85-1.02Z"/>
  <path class="cls-6" d="M34.93,17.19s.06.05.2.07c.02.1.19.03.14.24-.08.32-3.67,4.08-4.33,4.57-.16-.06-.13-.06-.14-.07.42-.91,1.47-1.51,2.37-2.61.36-.44,1.12-1.55,1.42-2.06.02-.03-.04-.16.03-.2.02-.01.08.06.3.07Z"/>
  <path class="cls-1" d="M49.28,2.98c-.47-.1-.56.28-.95.47-.35-.3-.6-.65-.95-.95.04-.04.32-.62.74-.88.13.38,1.07,1.06,1.15,1.35Z"/>
  <path class="cls-20" d="M49.48,2.91c0,.13-.17.22-.2.27,0-.06.02-.15,0-.2-.08-.3-1.02-.97-1.15-1.35.29-.44,1.19,1,1.35,1.29Z"/>
  <path class="cls-3" d="M49.28,2.98c.02.05,0,.14,0,.2-.24.32-.4.73-.81.47-.01,0-.12-.19-.14-.2.39-.19.48-.57.95-.47Z"/>
  <path class="cls-1" d="M48.13,3.65c.12.18.26.25.27.27.01.03.07.19.07.2-4.3,4.22-8.22,8.82-12.28,13.26-.34.06-.46-.11-.78-.14,2.3-2.16,4.22-4.67,6.36-6.97,2.08-2.24,4.33-4.34,6.36-6.63Z"/>
  <path class="cls-1" d="M22.28,32.15c-.79.9-1.74,2.17-2.71,2.71.01.11.13.13.14.14-4.41,4.91-8.67,9.95-13.2,14.75-.06-.02-.14-.04-.2-.07-.03-.01-.04-.34-.51-.07-.69.41-.67,1.74-1.39,1.15-.04-.06-.06-.06-.07-.07,3.66-3.97,7.44-7.84,11.03-11.88,1.28-1.44,2.42-3.05,3.69-4.5,0,0,.12.13.17.07l.3.34c.4-.27,2.2-2.57,2.37-2.64.11-.05.24.12.37.07Z"/>
  <path class="cls-20" d="M24.64,28.09c-1.84,2.06-3.59,4.21-5.41,6.29-.05.06-.16-.07-.17-.07-1.27,1.45-2.4,3.06-3.69,4.5-3.59,4.03-7.38,7.91-11.03,11.88-.08-.11-.06-.13-.07-.14,6.81-7.47,13.5-15.04,19.96-22.81.21,0,.29.22.41.34Z"/>
  <path class="cls-30" d="M20.38,36c-3.92,4.17-8.27,8.94-11.91,13.33-.46.22-.93,1.26-1.35,1.15-.01,0-.16-.11-.2-.14-.19-.12-.75-.67-.61-.68.07.03.14.04.2.07.31.12.47.39.81.17.81-.52,11.11-13.12,12.79-14.25l.27.34Z"/>
  <path class="cls-12" d="M6.31,49.67c-.14.01.42.55.61.68-.26.39-1.5,1.26-.61,1.15-.25.25-.49.37-.61.47-.1-.08-.19-.06-.2-.07-.25-.14-.87-.83-1.08-1.08-.01-.01.01-.05,0-.07.72.59.69-.74,1.39-1.15.47-.27.48.06.51.07Z"/>
  <path class="cls-10" d="M22.75,33.43c-.56.57-1.08,1.18-1.62,1.76-.22.23-.46.45-.68.68-.02-.28-.26-.26-.27-.27-.03-.03-.45-.58-.47-.61,0,0-.12-.03-.14-.14.97.43.96.22,2.17-1.08.06.5.62-.21.81-.41l.2.07Z"/>
  <path class="cls-33" d="M4.41,50.82c.21.25.83.94,1.08,1.08-.04.15-.59.64-.68.68-.11-.42-.24-.77-.68-.95,0-.03-.11-.18-.07-.54.09-.07.16-.3.34-.27Z"/>
  <path class="cls-19" d="M20.45,35.87s-.06.12-.07.14l-.27-.34s.08.01.07-.07c.01.01.25,0,.27.27Z"/>
  <path class="cls-22" d="M35.68,18.34c-.21.22-.12.36-.14.37-.03.03-.12-.03-.41.27-.99,1.04-1.9,2.19-2.91,3.21-.21.21-.46.4-.68.61-.25-.21-.52-.26-.54-.27-.02-.01-.09-.16-.41-.27.02-.1-.01-.23,0-.34.1.02.12.03.2.07,0,0-.02,0,.14.07.03.01.33.35.64.27.28-.07,3.4-3.82,3.96-4.26,0,.01.13.2.14.27Z"/>
  <path class="cls-18" d="M39.2,14.55c1.34-1.45,2.65-2.94,3.99-4.4l.14.03c-1.24,1.52-2.66,2.99-4.03,4.43l-.1-.07Z"/>
  <path class="cls-36" d="M35.88,18.2c-.08,0-.06-.05-.07-.07,1.02-1.2,2.18-2.29,3.25-3.45.13.09-.38.66-.68.98-.65.71-1.3,1.47-1.96,2.17-.48.5-.52.35-.54.37Z"/>
  <path class="cls-26" d="M35.81,18.14s-.01.07.07.07c-.18.19-.19.13-.2.14,0-.07-.13-.26-.14-.27,0-.04,0-.09,0-.14.16-.13.2.06.27.2Z"/>
  <path class="cls-14" d="M35.34,17.26c.32.59.19.63.2.68,0,.04,0,.09,0,.14-.56.44-3.68,4.2-3.96,4.26-.32.08-.61-.26-.64-.27.66-.49,4.25-4.25,4.33-4.57.05-.21-.11-.13-.14-.24.07,0,.11,0,.2,0Z"/>
  <path class="cls-30" d="M25.05,30.39c-.74.84-1.78,2.26-2.5,2.98-.2.2-.76.91-.81.41.68-.73,2.34-2.76,2.98-3.59l.34.2Z"/>
  <path class="cls-14" d="M20.18,35.6c0,.08-.06.06-.07.07-1.68,1.12-11.98,13.73-12.79,14.25-.35.22-.51-.05-.81-.17,4.53-4.8,8.78-9.84,13.2-14.75.02.03.45.58.47.61Z"/>
  <path class="cls-6" d="M22.28,32.15c-.13.05-.26-.11-.37-.07-.16.07-1.97,2.37-2.37,2.64l-.3-.34c1.83-2.09,3.58-4.23,5.41-6.29.09.09.61.5.61.58-1.04,1.12-1.97,2.34-2.98,3.49Z"/>
  <path class="cls-14" d="M24.71,27.41c.06.24,1.07,1.23,1.08,1.32,0,.09-.94,1.27-1.08,1.46-.64.83-2.3,2.85-2.98,3.59-1.2,1.3-1.19,1.51-2.17,1.08.97-.53,1.91-1.81,2.71-2.71,1.01-1.15,1.94-2.37,2.98-3.49,0-.07-.52-.48-.61-.58-.12-.12-.19-.34-.41-.34.2-.26.22-.34.47-.34Z"/>
  <path class="cls-8" d="M7.12,50.49c-.02.44-.51.7-.81,1.02-.89.11.35-.76.61-1.15.05.03.19.13.2.14Z"/>
  <path class="cls-31" d="M17.88,20.17c1.65,1.9,3.17,3.89,4.94,5.68-.15.17-.13.26-.14.27,0,0-.13.06-.14.07-.68-.76-1.35-1.54-2.03-2.3-3.83-4.32-7.54-8.8-11.57-12.93-.83-1.12-1.91-2.02-2.84-3.05-.38-.42-.78-.86-1.15-1.29-.62-.71-1.26-1.5-1.76-2.3.02-.01.12-.12.14-.14.08-.06.19-.08.27-.14,1.8,1.79,3.33,3.83,5.01,5.72.91,1.02,1.94,1.95,2.84,2.98,2.16,2.45,4.29,4.94,6.43,7.41Z"/>
  <path class="cls-6" d="M8.27,7.11c.64.73,1.12,1.61,1.76,2.33.94,1.07,1.97,2.05,2.91,3.11,1.08,1.22,2.1,2.5,3.18,3.72.88,1,1.23,1.08,2.37,2.54.1.13.17.28.27.41-.48.64-.68-.21-.88-.44-.44-.49-1.14-1.11-1.35-1.35-.19-.22-.41-.72-.61-.95-3.59-4.11-7.43-7.98-10.86-12.22-.47.25-1.06-1.21-1.15-1.22-.15-.01-.01.1-.24.27l-.68-.88c.12-.21.41-.36.61-.54.56.5.7,1.06.74,1.12.03.04.27.02.47.27.15.18.27.58.47.81.78.9,2.28,2.21,2.98,3.01Z"/>
  <path class="cls-35" d="M4.55,1.83c.15.15.63.85.88,1.15,1.17,1.4,2.32,2.82,3.52,4.2-.22-.1-.42-.13-.68-.07-.7-.8-2.2-2.11-2.98-3.01-.2-.23-.33-.63-.47-.81-.2-.25-.44-.23-.47-.27-.04-.05-.19-.61-.74-1.12.22-.2.12-.9.95-.07Z"/>
  <path class="cls-34" d="M2.92,2.64c-.13.6.24,1.03.68.81.29.3.26.39.27.41-.1.04-.18.14-.27.2-.08.06-.19.08-.27.14-.2-.44-1.28-1.37-.41-1.56Z"/>
  <path class="cls-3" d="M3.67,3.32s-.06.13-.07.14c-.44.21-.81-.21-.68-.81.02-.07,0-.1.07-.2l.68.88Z"/>
  <path class="cls-11" d="M45.15,46.02c.65.66,2.36,2.61,2.88,2.98.05.03.24-.29.85.54-.03.03-.06.12-.14.2-.12-.21-.35-.29-.54-.41-1.18-.7-3.4-3.25-4.53-4.4-2.14-2.18-4.29-4.38-6.36-6.63-.76-.82-1.05-1.4-1.49-1.89l.17-.07c3.02,3.25,6.03,6.52,9.17,9.68Z"/>
  <path class="cls-3" d="M48.74,49.74c-.39.43-.7,1.04-1.08,1.42,0,0-.1.06-.14.07.35-.68-.07-.2-.1-.2-.06,0-.07-.16-.24-.27.05-.1.14-.18.2-.27.13-.18.13-.26.14-.27.04-.06.43-.4.68-.88.19.11.42.2.54.41Z"/>
  <path class="cls-30" d="M18.08,19.96c.08.13.26-.03.2.37l-.41-.17c-2.14-2.47-4.27-4.96-6.43-7.41-.91-1.03-1.93-1.96-2.84-2.98-1.68-1.89-3.21-3.93-5.01-5.72.09-.06.17-.16.27-.2,2.05,2.69,6.55,7.23,9,9.98.83.93,4.87,5.61,5.21,6.12Z"/>
  <path class="cls-8" d="M18.76,19.56c-.05.1-.09.17-.14.27-.03.06-.28.22-.2.51.12.46,3.96,4.43,4.6,5.11.36.38.72.77,1.08,1.15.03.3-.06.26-.07.27-.08-.18-.28-.27-.41-.41-.49-.5-.56-.9-.81-.61-1.77-1.8-3.29-3.79-4.94-5.68l.41.17c.06-.4-.12-.24-.2-.37l.68-.41Z"/>
  <path class="cls-1" d="M18.76,19.22c.11.13.06.19.07.2-.11,0-.05.1-.07.14l-.68.41c-.34-.51-4.38-5.19-5.21-6.12-2.45-2.75-6.95-7.29-9-9.98-.01-.02.02-.1-.27-.41,0,0,.06-.13.07-.14.22-.17.09-.28.24-.27.09,0,.68,1.46,1.15,1.22,3.43,4.24,7.28,8.1,10.86,12.22.2.23.41.73.61.95.22.25.92.87,1.35,1.35.2.23.4,1.08.88.44Z"/>
  <path class="cls-20" d="M8.94,7.17c1.05,1.2,6.48,7.27,7.11,7.78,1.64,1.96,3.25,3.96,5.01,5.82l-.14.2s-.38-.18-1.02-.85c-.34-.35-.63-1.37-1.42-1.32-1.14-1.46-1.49-1.54-2.37-2.54-1.08-1.22-2.1-2.5-3.18-3.72-.94-1.06-1.97-2.05-2.91-3.11-.64-.73-1.12-1.61-1.76-2.33.25-.06.46-.03.68.07Z"/>
  <path class="cls-20" d="M20.92,20.98c1.22,1.36,1.94,2.6,3.65,4.33-.2-.02-.22,0-.2.2-2.03-1.86-3.85-3.93-5.55-6.09,0-.01.04-.07-.07-.2-.1-.13-.17-.28-.27-.41.79-.05,1.09.97,1.42,1.32.64.67.97.8,1.02.85Z"/>
  <path class="cls-29" d="M6.03,2.91l-.2.3c3.66,4.11,7.37,8.17,11.03,12.28-.21-.16-.65-.41-.81-.54-.63-.51-6.06-6.58-7.11-7.78-1.2-1.38-2.35-2.79-3.52-4.2.33.13.26.24.54-.14,0,0,.08-.01.07.07Z"/>
  <path class="cls-10" d="M47.18,50.76c.17.11.18.27.24.27.03,0,.46-.48.1.2-.08.16-.23.22-.34.34-.27-.42-.34-.99-.81-1.22.01-.1.13-.13.14-.14.22.21.42.37.68.54Z"/>
  <path class="cls-35" d="M22.89,22.4c2.19,2.12,4.19,4.4,6.29,6.6,1.13,1.19,2.4,2.26,3.52,3.45.65.69,1.56,1.91,2.37,2.77,3.37,3.59,6.77,7.15,10.08,10.79-3.14-3.15-6.15-6.42-9.17-9.68l-.17.07c-.9-1-1.82-1.8-2.77-2.67-2.38-3.08-5.83-5.77-8.46-8.43-1.72-1.74-2.43-2.97-3.65-4.33l.14-.2c.68.72,2.41,2.54,1.83,1.62Z"/>
  <path class="cls-7" d="M16.86,15.5c2.03,2.28,4.12,4.51,6.02,6.9.58.91-1.15-.91-1.83-1.62-1.75-1.86-3.37-3.86-5.01-5.82.16.13.6.38.81.54Z"/>
  <path class="cls-1" d="M37.3,38.3c2.07,2.25,4.22,4.45,6.36,6.63-.12.03-.16.13-.14.24.09.4,2.95,3.09,2.98,3.32.02.14-.24.15-.07.47.04.07.69.43,1.08,1.25,0,.01,0,.1-.14.27l-.61-.54c.14-.21.17-.31-.2-.2.22-.24-.2-.25-.68-.78-.56-.62-.99-1.4-1.56-2.03-1.17-1.28-2.55-2.38-3.72-3.65-1.07-1.16-1.97-2.5-3.05-3.65-1.21-1.3-2.5-2.53-3.72-3.82.22-.37.98.8,1.66,1.35.09.07,1.08.57,1.76,1.29l.03-.14Z"/>
  <path class="cls-6" d="M24.58,25.31c2.63,2.66,6.08,5.34,8.46,8.43.95.87,1.88,1.67,2.77,2.67.44.49.73,1.07,1.49,1.89l-.03.14c-.68-.71-1.67-1.22-1.76-1.29-.68-.55-1.44-1.72-1.66-1.35-.24-.26-.51-.49-.74-.74.61-.42-.37-.77-.88-1.32-.45-.49-.44-.71-.47-.74-.21-.24-.4-.23-.68-.54-.2-.23-.25-.58-.27-.61-.49-.55-2.8-3-3.18-3.01-.55-.63-1.37-1.71-1.89-1.62-.16-.17-.31-.37-.47-.54.49.02-.31-.61-.88-1.15-.02-.2,0-.22.2-.2Z"/>
  <path class="cls-1" d="M48.2,49.34c-.25.48-.63.82-.68.88-.39-.82-1.04-1.18-1.08-1.25-.18-.32.08-.33.07-.47-.03-.22-2.89-2.91-2.98-3.32-.02-.11.02-.21.14-.24,1.13,1.15,3.35,3.7,4.53,4.4Z"/>
  <path class="cls-12" d="M47.38,50.49c-.07.09-.15.17-.2.27-.25-.17-.46-.34-.68-.54.06-.06.26-.25.27-.27l.61.54Z"/>
  <path class="cls-14" d="M23.63,25.24c.49.5,1.13.92,1.62,1.42.16.17.31.37.47.54.97,1.01,1.94,2.03,2.91,3.05,1.52,1.58,2.97,3.21,4.47,4.8.24.25.5.49.74.74,1.22,1.3,2.51,2.52,3.72,3.82,1.07,1.15,1.98,2.5,3.05,3.65,1.18,1.27,2.56,2.37,3.72,3.65.57.63,1,1.41,1.56,2.03.48.53.89.54.68.78-.02,0-.24.24-.3.27-4.88-5.27-9.85-10.45-14.69-15.77-.03.07-.05.08-.1.14l-.27-.27s.14-.01-.07-.37c-.39-.67-5.3-5.29-6.36-6.4-.23-.24-.44-.5-.68-.74-.36-.38-.72-.77-1.08-1.15.24-.58.5.6.61-.2Z"/>
  <path class="cls-14" d="M23.63,25.24c-.11.8-.37-.38-.61.2-.64-.68-4.48-4.65-4.6-5.11-.08-.29.17-.44.2-.51,1.54,1.91,3.29,3.65,5.01,5.41Z"/>
  <path class="cls-6" d="M24.37,25.51c.57.54,1.37,1.17.88,1.15-.49-.5-1.14-.92-1.62-1.42-1.72-1.76-3.47-3.5-5.01-5.41.05-.1.08-.17.14-.27.02-.03-.04-.14.07-.14,1.7,2.16,3.52,4.23,5.55,6.09Z"/>
  <path class="cls-30" d="M46.57,49.74c.37-.1.35,0,.2.2-.01.02-.21.21-.27.27,0,0-.13.03-.14.14-.05-.03-.04.17-.34-.03-.42-.28-5.65-6.48-6.9-7.31-1-1.34-7.49-8.06-7.78-8.56.04-.01.13-.06.14-.07.06-.05.07-.06.1-.14,4.83,5.32,9.81,10.5,14.69,15.77.07-.03.28-.27.3-.27Z"/>
  <path class="cls-30" d="M31.21,34.11s-.01.05,0,.07l-5.04-5.01c-.08,0-.98,1.06-1.12,1.22l-.34-.2c.14-.18,1.09-1.36,1.08-1.46,0-.08-1.02-1.08-1.08-1.32,0,0-.02-.07.07-.07,1.07,1.1,5.97,5.72,6.36,6.4.21.36.05.35.07.37Z"/>
  <path class="cls-13" d="M31.48,34.38s-.1.06-.14.07c-.12-.19-.13-.26-.14-.27-.01-.02.01-.05,0-.07l.27.27Z"/>
  <path class="cls-1" d="M33.1,35.06c-1.5-1.59-2.95-3.23-4.47-4.8-.12-.66-.61-.96-1.02-1.42.38.01,2.69,2.46,3.18,3.01.02.02.07.38.27.61.28.32.46.3.68.54.03.03.02.26.47.74.51.55,1.49.9.88,1.32Z"/>
  <path class="cls-1" d="M27.62,28.83c.4.46.9.76,1.02,1.42-.97-1.01-1.94-2.04-2.91-3.05.52-.08,1.34.99,1.89,1.62Z"/>
</svg>