<?xml version="1.0" encoding="UTF-8"?>
<svg id="Layer_1" data-name="Layer 1" xmlns="http://www.w3.org/2000/svg" version="1.1" viewBox="0 0 471.4 471.4">
  <defs>
    <style>
      .cls-1 {
        fill: #b9bac0;
      }

      .cls-1, .cls-2, .cls-3, .cls-4, .cls-5, .cls-6 {
        stroke-width: 0px;
      }

      .cls-2 {
        fill: #ef5226;
      }

      .cls-3 {
        fill: none;
      }

      .cls-4 {
        fill: #e71e25;
      }

      .cls-5 {
        fill: #f2f2f2;
        isolation: isolate;
        opacity: .6;
      }

      .cls-6 {
        fill: #d7dbe0;
      }
    </style>
  </defs>
  <path class="cls-5" d="M235.2,57.2c-99.1,0-179.5,80.4-179.5,179.5s80.4,179.5,179.5,179.5,179.5-80.4,179.5-179.5S334.3,57.2,235.2,57.2Z"/>
  <g>
    <path class="cls-1" d="M31.9,236.2c0,4.4-3.6,8-8,8H8C3.6,244.2,0,240.7,0,236.2s3.6-8,8-8h16c4.4,0,8,3.6,8,8h0Z"/>
    <path class="cls-1" d="M243.1,447.4v16c0,4.4-3.6,8-8,8-4.4,0-8-3.6-8-8v-16c0-4.4,3.6-8,8-8,4.4,0,8,3.6,8,8h0Z"/>
    <path class="cls-1" d="M471.4,236.3c0,4.4-3.6,8-8,8h-16c-4.4,0-8-3.6-8-8s3.6-8,8-8h16c4.4,0,8,3.6,8,8Z"/>
    <path class="cls-1" d="M243.1,8v16c0,4.4-3.6,8-8,8s-8-3.6-8-8V8C227.1,3.6,230.7,0,235.1,0s8,3.6,8,8Z"/>
    <g>
      <path class="cls-3" d="M342.6,128.7c-59.4-59.4-155.7-59.4-215,0s-59.4,155.7,0,215,155.7,59.4,215,0,59.4-155.7,0-215Z"/>
      <path class="cls-6" d="M235.7,16C114.3,16,16,114.3,16,235.7s98.4,219.7,219.7,219.7,219.7-98.4,219.7-219.7S357,16,235.7,16ZM387.1,236.3c0,84-68.1,152-152,152s-152-68.1-152-152.1S151.1,84.2,235.1,84.2s152.1,68.1,152,152h0Z"/>
    </g>
    <path class="cls-1" d="M235.1,52.7c-101.2,0-183.6,82.3-183.6,183.6s82.4,183.6,183.6,183.6,183.6-82.3,183.6-183.6S336.3,52.7,235.1,52.7ZM235.1,388.3c-84,0-152-68.1-152-152.1S151.1,84.2,235.1,84.2s152.1,68.1,152,152h0c0,84-68.1,152.1-152,152.1Z"/>
    <g>
      <path class="cls-3" d="M374.6,175.8s0,0,0,0h0s0,0,0,0Z"/>
      <path class="cls-3" d="M425.4,124.9l-50.8,50.8s0,0,0,0h0s0,0,0,0c-15.3-35.3-43.7-63.7-79-79l50.8-50.8c-32.5-19-70.4-29.9-110.8-29.9s-78.8,11.1-111.5,30.4l50.4,50.4c-35.3,15.3-63.7,43.7-79,79l-50.1-50.1c-18.8,32.4-29.5,69.9-29.5,110s10.9,78.2,29.9,110.8l49.7-49.7c15.3,35.3,43.7,63.7,79,79l-49.7,49.7c32.5,19,70.4,29.9,110.8,29.9s77.7-10.8,110-29.5l-50.1-50.1c35.3-15.3,63.7-43.7,79-79l50.4,50.4c19.3-32.7,30.4-70.8,30.4-111.5s-10.9-78.2-29.9-110.8ZM235.4,204.8"/>
      <path class="cls-2" d="M174.6,96.7l-50.4-50.4c-32.6,19.2-59.8,46.6-78.7,79.3l50.1,50.1c15.3-35.3,43.7-63.7,79-79h0Z"/>
      <path class="cls-2" d="M95.6,296.7l-49.7,49.7c19.1,32.7,46.4,59.9,79,79l49.7-49.7c-35.3-15.3-63.7-43.7-79-79Z"/>
      <path class="cls-2" d="M374.6,175.8l50.8-50.8c-19.1-32.6-46.4-59.9-79-79l-50.8,50.8c35.3,15.3,63.7,43.7,79,79h0Z"/>
      <path class="cls-2" d="M295.6,375.8l50.1,50.1c32.7-19,60.1-46.2,79.3-78.7l-50.4-50.4c-15.3,35.3-43.7,63.7-79,79h0Z"/>
    </g>
    <g>
      <path class="cls-4" d="M174.6,96.7l-23.6-23.6c-33.8,17.5-61.5,45.2-79,79l23.6,23.6c15.3-35.3,43.7-63.7,79-79h0Z"/>
      <path class="cls-4" d="M95.6,296.7l-23.6,23.6c17.5,33.8,45.2,61.5,79,79l23.6-23.6c-35.3-15.3-63.7-43.7-79-79h0Z"/>
      <path class="cls-4" d="M295.6,375.8l23.6,23.6c33.8-17.5,61.5-45.2,79-79l-23.6-23.6c-15.3,35.3-43.7,63.7-79,79Z"/>
      <path class="cls-4" d="M295.6,96.7c35.3,15.3,63.7,43.7,79,79l23.6-23.6c-17.5-33.8-45.2-61.5-79-79l-23.6,23.6Z"/>
    </g>
  </g>
  <g>
    <path class="cls-2" d="M224.1,264.6h23.1v-71.1c8.5-2.5,15.4-7.3,20.8-14.3,5.4-7,8.1-15.2,8.1-24.4s-3.9-20.7-11.8-28.6-17.4-11.8-28.6-11.8-20.7,3.9-28.6,11.8-11.8,17.4-11.8,28.6,2.7,17.4,8.1,24.4c5.4,7,12.3,11.8,20.8,14.3v71.1ZM223.4,167.1c-3.4-3.4-5.1-7.5-5.1-12.3s1.7-8.9,5.1-12.3,7.5-5.1,12.3-5.1,8.9,1.7,12.3,5.1c3.4,3.4,5.1,7.5,5.1,12.3s-1.7,8.9-5.1,12.3c-3.4,3.4-7.5,5.1-12.3,5.1s-8.9-1.7-12.3-5.1Z"/>
    <path class="cls-4" d="M336.6,253.4c-2-3.6-4.9-6.4-8.5-8.5l-80.9-46.5v26.6l48.5,28-60.1,34.7-60.1-34.7,48.5-28v-26.6l-80.9,46.5c-3.7,2.1-6.5,5-8.5,8.5-2,3.6-3,7.5-3,11.7v22c0,4.2,1,8.1,3,11.7,2,3.6,4.9,6.4,8.5,8.5l80.9,46.5c3.7,2.1,7.5,3.2,11.6,3.2s7.9-1.1,11.6-3.2l80.9-46.5c3.7-2.1,6.5-5,8.5-8.5,2-3.6,3-7.5,3-11.7v-22c0-4.2-1-8.1-3-11.7ZM316.6,287.1l-80.9,46.8-80.9-46.8v-19.4l69.3,39.9c3.7,2.1,7.5,3.2,11.6,3.2s7.9-1.1,11.6-3.2l69.3-39.9v19.4Z"/>
  </g>
</svg>