<?xml version="1.0" encoding="UTF-8"?>
<svg id="Layer_1" data-name="Layer 1" xmlns="http://www.w3.org/2000/svg" viewBox="0 0 540.19 562.32">
  <defs>
    <style>
      .cls-1 {
        fill: none;
      }

      .cls-1, .cls-2, .cls-3, .cls-4, .cls-5, .cls-6 {
        stroke-width: 0px;
      }

      .cls-2 {
        fill: #f05327;
      }

      .cls-3 {
        fill: #babbc1;
      }

      .cls-4 {
        fill: #d8dce1;
      }

      .cls-5 {
        fill: #ed1c24;
      }

      .cls-6 {
        fill: #e81e25;
      }
    </style>
  </defs>
  <g>
    <g>
      <g>
        <path class="cls-3" d="M276.49,92.82c-4.41,0-7.98-3.57-7.98-7.98v-15.96c0-4.41,3.57-7.98,7.98-7.98s7.98,3.57,7.98,7.98v15.96c0,4.41-3.57,7.98-7.98,7.98Z"/>
        <path class="cls-3" d="M65.33,303.97h-15.96c-4.41,0-7.98-3.57-7.98-7.98s3.57-7.98,7.98-7.98h15.96c4.41,0,7.98,3.57,7.98,7.98s-3.57,7.98-7.98,7.98Z"/>
        <path class="cls-3" d="M276.49,532.24c-4.41,0-7.98-3.57-7.98-7.98v-15.96c0-4.41,3.57-7.98,7.98-7.98s7.98,3.57,7.98,7.98v15.96c0,4.41-3.57,7.98-7.98,7.98Z"/>
        <path class="cls-3" d="M504.76,303.97h-15.96c-4.41,0-7.98-3.57-7.98-7.98s3.57-7.98,7.98-7.98h15.96c4.41,0,7.98,3.57,7.98,7.98s-3.57,7.98-7.98,7.98Z"/>
        <g>
          <circle class="cls-1" cx="276.49" cy="295.99" r="152.05" transform="translate(-128.32 282.2) rotate(-45)"/>
          <path class="cls-4" d="M277.06,76.85c-121.34,0-219.71,98.37-219.71,219.71s98.37,219.71,219.71,219.71,219.71-98.37,219.71-219.71-98.37-219.71-219.71-219.71ZM276.49,448.04c-83.97,0-152.05-68.07-152.05-152.05s68.07-152.05,152.05-152.05,152.05,68.07,152.05,152.05-68.07,152.05-152.05,152.05Z"/>
        </g>
        <path class="cls-3" d="M276.49,112.4c-101.24,0-183.59,82.36-183.59,183.59s82.35,183.59,183.59,183.59,183.59-82.36,183.59-183.59-82.35-183.59-183.59-183.59ZM276.49,448.04c-83.97,0-152.05-68.07-152.05-152.05s68.07-152.05,152.05-152.05,152.05,68.07,152.05,152.05-68.07,152.05-152.05,152.05Z"/>
        <g>
          <path class="cls-1" d="M336.99,435.51c35.32-15.34,63.68-43.7,79.02-79.02l50.83,50.83c19.02-32.52,29.93-70.36,29.93-110.76s-11.08-78.8-30.36-111.48l-50.4,50.4c-15.34-35.32-43.7-63.68-79.02-79.02l50.11-50.11c-32.36-18.76-69.94-29.51-110.03-29.51s-78.24,10.91-110.76,29.93l49.68,49.68c-35.33,15.34-63.68,43.7-79.02,79.02l-49.68-49.68c-19.02,32.52-29.93,70.36-29.93,110.76s10.75,77.68,29.51,110.04l50.11-50.11c15.34,35.32,43.7,63.68,79.02,79.02l-50.4,50.4c32.68,19.28,70.79,30.36,111.48,30.36s78.24-10.91,110.76-29.93l-50.83-50.83Z"/>
          <path class="cls-2" d="M416.01,235.49l50.4-50.4c-19.22-32.57-46.59-59.75-79.32-78.73l-50.11,50.11c35.33,15.34,63.68,43.7,79.02,79.02Z"/>
          <path class="cls-2" d="M215.99,156.47l-49.68-49.68c-32.65,19.1-59.93,46.37-79.02,79.02l49.68,49.68c15.34-35.32,43.7-63.68,79.02-79.02Z"/>
          <path class="cls-2" d="M336.99,435.51l50.83,50.83c32.65-19.1,59.93-46.37,79.02-79.02l-50.83-50.83c-15.34,35.32-43.7,63.68-79.02,79.02Z"/>
          <path class="cls-2" d="M136.96,356.49l-50.11,50.11c18.97,32.73,46.16,60.1,78.73,79.32l50.4-50.4c-35.32-15.34-63.68-43.7-79.02-79.02Z"/>
        </g>
        <g>
          <path class="cls-6" d="M416.01,235.49l23.59-23.6c-17.51-33.82-45.2-61.51-79.02-79.02l-23.6,23.6c35.32,15.34,63.68,43.7,79.02,79.02Z"/>
          <path class="cls-6" d="M215.98,156.47l-23.6-23.59c-33.82,17.51-61.51,45.2-79.02,79.02l23.6,23.6c15.34-35.32,43.7-63.68,79.02-79.02Z"/>
          <path class="cls-6" d="M136.96,356.49l-23.6,23.6c17.51,33.82,45.2,61.51,79.02,79.02l23.6-23.6c-35.33-15.34-63.68-43.7-79.02-79.02Z"/>
          <path class="cls-6" d="M416.01,356.49c-15.34,35.32-43.7,63.68-79.02,79.02l23.6,23.6c33.82-17.51,61.51-45.2,79.02-79.02l-23.6-23.6Z"/>
        </g>
      </g>
      <g>
        <g>
          <path class="cls-2" d="M186.57,315.83c0-3.15-1.11-5.58-3.34-7.27-2.23-1.69-6.24-3.47-12.03-5.34-5.79-1.87-10.38-3.72-13.75-5.54-9.21-4.97-13.81-11.67-13.81-20.1,0-4.38,1.23-8.29,3.7-11.72,2.47-3.43,6.01-6.11,10.63-8.04,4.62-1.93,9.81-2.9,15.56-2.9s10.95,1.05,15.48,3.15c4.53,2.1,8.05,5.06,10.55,8.88,2.51,3.82,3.76,8.17,3.76,13.03h-16.7c0-3.71-1.17-6.6-3.51-8.66-2.34-2.06-5.62-3.09-9.85-3.09s-7.26.86-9.52,2.59c-2.26,1.73-3.4,4-3.4,6.82,0,2.64,1.33,4.84,3.98,6.63,2.65,1.78,6.56,3.45,11.72,5.01,9.5,2.86,16.42,6.4,20.77,10.63,4.34,4.23,6.51,9.5,6.51,15.81,0,7.02-2.65,12.52-7.96,16.51-5.31,3.99-12.45,5.99-21.44,5.99-6.24,0-11.91-1.14-17.04-3.42-5.12-2.28-9.03-5.41-11.72-9.38-2.69-3.97-4.04-8.57-4.04-13.81h16.76c0,8.95,5.34,13.42,16.03,13.42,3.97,0,7.07-.81,9.3-2.42,2.23-1.61,3.34-3.87,3.34-6.76Z"/>
          <path class="cls-2" d="M214.41,329.19c0-2.56.86-4.64,2.59-6.24,1.73-1.6,3.89-2.39,6.49-2.39s4.82.8,6.54,2.39c1.73,1.6,2.59,3.67,2.59,6.24s-.85,4.58-2.56,6.15c-1.71,1.58-3.9,2.37-6.57,2.37s-4.81-.79-6.51-2.37c-1.71-1.58-2.56-3.63-2.56-6.15Z"/>
          <path class="cls-2" d="M314.35,298.4c0,7.98-1.41,14.98-4.23,20.99-2.82,6.01-6.86,10.65-12.11,13.92-5.25,3.27-11.27,4.9-18.07,4.9s-12.71-1.61-17.98-4.84c-5.27-3.23-9.35-7.84-12.25-13.83s-4.36-12.89-4.4-20.68v-4.01c0-7.98,1.44-15,4.31-21.07,2.88-6.07,6.94-10.73,12.19-13.97,5.25-3.25,11.26-4.87,18.01-4.87s12.76,1.62,18.01,4.87c5.25,3.25,9.32,7.91,12.19,13.97,2.88,6.07,4.31,13.08,4.31,21.02v3.62ZM297.42,294.73c0-8.5-1.52-14.96-4.56-19.38-3.04-4.42-7.39-6.63-13.03-6.63s-9.93,2.18-12.97,6.54c-3.04,4.36-4.58,10.75-4.62,19.18v3.95c0,8.28,1.52,14.7,4.57,19.26,3.04,4.57,7.42,6.85,13.14,6.85s9.91-2.2,12.92-6.6c3.01-4.4,4.53-10.81,4.56-19.24v-3.95Z"/>
          <path class="cls-2" d="M319.47,329.19c0-2.56.86-4.64,2.59-6.24,1.73-1.6,3.89-2.39,6.49-2.39s4.82.8,6.54,2.39c1.73,1.6,2.59,3.67,2.59,6.24s-.85,4.58-2.56,6.15c-1.71,1.58-3.9,2.37-6.57,2.37s-4.81-.79-6.51-2.37c-1.71-1.58-2.56-3.63-2.56-6.15Z"/>
          <path class="cls-2" d="M394.85,315.83c0-3.15-1.11-5.58-3.34-7.27-2.23-1.69-6.24-3.47-12.03-5.34-5.79-1.87-10.38-3.72-13.75-5.54-9.21-4.97-13.81-11.67-13.81-20.1,0-4.38,1.23-8.29,3.7-11.72,2.47-3.43,6.01-6.11,10.63-8.04,4.62-1.93,9.81-2.9,15.56-2.9s10.95,1.05,15.48,3.15c4.53,2.1,8.05,5.06,10.55,8.88,2.51,3.82,3.76,8.17,3.76,13.03h-16.7c0-3.71-1.17-6.6-3.51-8.66-2.34-2.06-5.62-3.09-9.85-3.09s-7.26.86-9.52,2.59c-2.26,1.73-3.4,4-3.4,6.82,0,2.64,1.33,4.84,3.98,6.63,2.65,1.78,6.56,3.45,11.72,5.01,9.5,2.86,16.42,6.4,20.77,10.63,4.34,4.23,6.51,9.5,6.51,15.81,0,7.02-2.65,12.52-7.96,16.51-5.31,3.99-12.45,5.99-21.44,5.99-6.24,0-11.91-1.14-17.04-3.42-5.12-2.28-9.03-5.41-11.72-9.38-2.69-3.97-4.04-8.57-4.04-13.81h16.76c0,8.95,5.34,13.42,16.03,13.42,3.97,0,7.07-.81,9.3-2.42,2.23-1.61,3.34-3.87,3.34-6.76Z"/>
        </g>
        <g>
          <path class="cls-5" d="M268.53,319.82c-.61-.66-1.2-1.36-1.73-2.15-3.04-4.57-4.57-10.99-4.57-19.26v-3.95c.04-8.43,1.58-14.82,4.62-19.18,3.04-4.36,7.37-6.54,12.97-6.54,4.2,0,7.67,1.23,10.43,3.67-2.9-3.1-6.7-4.67-11.43-4.67-5.6,0-9.93,2.18-12.97,6.54-3.04,4.36-4.58,10.75-4.62,19.18v3.95c0,8.28,1.52,14.7,4.57,19.26.81,1.22,1.73,2.26,2.73,3.15Z"/>
          <path class="cls-5" d="M182.12,270.32c-2.34-2.06-5.62-3.09-9.85-3.09s-7.26.86-9.52,2.59c-2.26,1.73-3.4,4-3.4,6.82,0,2.2.94,4.1,2.79,5.71-1.19-1.38-1.79-2.95-1.79-4.71,0-2.82,1.13-5.09,3.4-6.82,2.26-1.73,5.44-2.59,9.52-2.59s7.45,1.01,9.78,3.03c-.29-.33-.59-.65-.93-.94Z"/>
          <path class="cls-5" d="M369.06,320.54c-1.91-2.18-2.88-5.16-2.88-8.94h-.96c.19,3.9,1.46,6.88,3.84,8.94Z"/>
          <path class="cls-5" d="M182.23,307.56c-2.23-1.69-6.24-3.47-12.03-5.34-5.79-1.87-10.38-3.72-13.75-5.54-2.8-1.51-5.17-3.19-7.12-5.02,2.12,2.23,4.82,4.24,8.12,6.02,3.38,1.82,7.96,3.67,13.75,5.54,5.79,1.88,9.8,3.66,12.03,5.34.15.11.28.24.42.35-.41-.49-.88-.95-1.42-1.35Z"/>
          <path class="cls-5" d="M406.85,265.95c2.51,3.82,3.76,8.17,3.76,13.03h-15.74c.02.33.04.66.04,1h16.7c0-4.86-1.25-9.21-3.76-13.03-1.02-1.56-2.22-2.96-3.57-4.23.95,1,1.81,2.07,2.57,3.23Z"/>
          <path class="cls-5" d="M390.4,270.32c-2.34-2.06-5.62-3.09-9.85-3.09s-7.26.86-9.52,2.59c-2.26,1.73-3.4,4-3.4,6.82,0,2.2.94,4.1,2.79,5.71-1.19-1.38-1.79-2.95-1.79-4.71,0-2.82,1.13-5.09,3.4-6.82,2.26-1.73,5.44-2.59,9.52-2.59s7.45,1.01,9.78,3.03c-.29-.33-.59-.65-.93-.94Z"/>
          <path class="cls-5" d="M390.51,307.56c-2.23-1.69-6.24-3.47-12.03-5.34-5.79-1.87-10.38-3.72-13.75-5.54-2.8-1.51-5.17-3.19-7.12-5.02,2.12,2.23,4.82,4.24,8.12,6.02,3.38,1.82,7.96,3.67,13.75,5.54,5.79,1.88,9.8,3.66,12.03,5.34.15.11.28.24.42.35-.41-.49-.88-.95-1.42-1.35Z"/>
          <path class="cls-5" d="M196.31,299.44c4,4.14,6.02,9.23,6.02,15.28,0,7.02-2.65,12.52-7.96,16.51-5.31,3.99-12.45,5.99-21.44,5.99-6.24,0-11.91-1.14-17.04-3.42-3.35-1.49-6.17-3.36-8.49-5.57,2.48,2.67,5.64,4.86,9.49,6.57,5.12,2.28,10.8,3.42,17.04,3.42,8.98,0,16.13-1.99,21.44-5.99,5.31-3.99,7.96-9.49,7.96-16.51,0-6.31-2.17-11.58-6.51-15.81-.16-.16-.34-.31-.5-.47Z"/>
          <path class="cls-5" d="M334.8,322.72c1.24,1.48,1.87,3.3,1.87,5.47,0,2.52-.85,4.58-2.56,6.15-1.71,1.58-3.9,2.37-6.57,2.37-2.5,0-4.57-.72-6.23-2.13.22.27.46.52.72.77,1.71,1.58,3.88,2.37,6.51,2.37s4.86-.79,6.57-2.37c1.71-1.58,2.56-3.63,2.56-6.15s-.86-4.64-2.59-6.24c-.09-.08-.19-.16-.28-.23Z"/>
          <path class="cls-5" d="M160.78,320.54c-1.91-2.18-2.88-5.16-2.88-8.94h-.96c.19,3.9,1.46,6.88,3.84,8.94Z"/>
          <path class="cls-5" d="M302.81,263.65c2.47,2.57,4.55,5.6,6.22,9.12,2.88,6.07,4.31,13.08,4.31,21.02v3.62c0,7.98-1.41,14.98-4.23,20.99-2.82,6.01-6.86,10.65-12.11,13.92-5.25,3.27-11.27,4.9-18.07,4.9s-12.71-1.61-17.98-4.84c-1.85-1.13-3.54-2.44-5.09-3.91,1.82,1.88,3.84,3.53,6.09,4.91,5.27,3.23,11.26,4.84,17.98,4.84s12.81-1.63,18.07-4.9c5.25-3.27,9.29-7.91,12.11-13.92,2.82-6.01,4.23-13.01,4.23-20.99v-3.62c0-7.94-1.44-14.95-4.31-21.02-1.89-3.99-4.3-7.35-7.22-10.12Z"/>
          <path class="cls-5" d="M404.59,299.44c4,4.14,6.02,9.23,6.02,15.28,0,7.02-2.65,12.52-7.96,16.51-5.31,3.99-12.45,5.99-21.44,5.99-6.24,0-11.91-1.14-17.04-3.42-3.35-1.49-6.17-3.36-8.49-5.57,2.48,2.67,5.64,4.86,9.49,6.57,5.12,2.28,10.8,3.42,17.04,3.42,8.98,0,16.13-1.99,21.44-5.99,5.31-3.99,7.96-9.49,7.96-16.51,0-6.31-2.17-11.58-6.51-15.81-.16-.16-.34-.31-.5-.47Z"/>
          <path class="cls-5" d="M196,262.71c.95,1,1.81,2.07,2.57,3.23,2.51,3.82,3.76,8.17,3.76,13.03h-15.74c.02.33.04.66.04,1h16.7c0-4.86-1.25-9.21-3.76-13.03-1.02-1.56-2.22-2.96-3.57-4.23Z"/>
          <path class="cls-5" d="M229.74,322.72c1.24,1.48,1.87,3.3,1.87,5.47,0,2.52-.85,4.58-2.56,6.15-1.71,1.58-3.9,2.37-6.57,2.37-2.5,0-4.57-.72-6.23-2.13.22.27.46.52.72.77,1.71,1.58,3.88,2.37,6.51,2.37s4.86-.79,6.57-2.37c1.71-1.58,2.56-3.63,2.56-6.15s-.86-4.64-2.59-6.24c-.09-.08-.19-.16-.28-.23Z"/>
        </g>
      </g>
    </g>
    <g>
      <path class="cls-2" d="M47.54,178.9c-1.93-.91-3.75-.93-5.47-.07-1.72.86-3.96,2.73-6.72,5.62-2.76,2.89-5.19,5.17-7.29,6.85-6.81,5.45-13.26,6.75-19.34,3.89-3.03-1.42-5.29-3.56-6.78-6.41-1.49-2.85-2.12-6.2-1.89-10.04.23-3.84,1.29-7.77,3.18-11.8,1.85-3.93,4.2-7.13,7.07-9.59,2.87-2.46,6-3.95,9.41-4.46,3.4-.51,6.77.02,10.1,1.58l-6.17,13.15c-2.23-1.05-4.28-1.17-6.15-.39-1.87.79-3.35,2.35-4.44,4.68-1.11,2.35-1.46,4.46-1.06,6.31.4,1.85,1.4,3.16,3,3.91,1.4.66,3.03.5,4.87-.46,1.85-.97,4.26-3.06,7.25-6.27,2.99-3.21,5.76-5.7,8.3-7.47,6.18-4.31,12.27-5.06,18.25-2.25,4.78,2.25,7.69,5.81,8.73,10.7,1.04,4.89.08,10.48-2.87,16.76-2.08,4.43-4.76,8.07-8.04,10.92-3.28,2.85-6.73,4.53-10.35,5.05-3.62.52-7.23-.07-10.84-1.76l6.21-13.22c2.93,1.38,5.45,1.63,7.55.77,2.1-.86,3.95-3,5.55-6.4,1.02-2.18,1.36-4.12,1.02-5.83-.35-1.71-1.37-2.96-3.07-3.76ZM85.73,148.8c-1.03-.14-2.38-.57-4.03-1.3,1.1,3.99.28,7.85-2.44,11.58-2.5,3.42-5.65,5.57-9.47,6.45-3.81.88-7.28.18-10.41-2.11-3.93-2.87-5.84-6.5-5.73-10.87.11-4.37,2.19-9.33,6.24-14.87l2.55-3.49-1.92-1.4c-3.35-2.44-6.07-2.22-8.18.66-1.96,2.68-1.61,4.99,1.04,6.92l-8.25,11.29c-3.5-2.56-5.26-6.13-5.27-10.71,0-4.58,1.68-9.18,5.06-13.81s7.18-7.45,11.39-8.49c4.22-1.03,8.31-.15,12.29,2.66l16.05,11.73c3.36,2.39,6.28,3.73,8.77,4.04l.57.42-8.25,11.29ZM73.19,150.48c1.03-1.41,1.58-2.8,1.65-4.16.07-1.37-.12-2.53-.59-3.49l-5.8-4.24-2.4,3.28c-2.87,3.93-2.54,7.19.99,9.77,1.03.75,2.11,1.01,3.26.78,1.14-.23,2.11-.88,2.89-1.95ZM97.27,111.13l-14.57-25.24,10.58-10.25,20.72,42.45-10.25,9.93-41.77-22.06,10.61-10.28,24.67,15.45ZM93.1,61.81c-1.19-1.6-1.58-3.34-1.19-5.22.4-1.88,1.52-3.5,3.36-4.87,1.84-1.37,3.72-1.97,5.64-1.81,1.91.16,3.46,1.04,4.65,2.64,1.19,1.6,1.58,3.34,1.19,5.22-.4,1.88-1.52,3.5-3.36,4.87-1.84,1.37-3.72,1.97-5.64,1.81-1.91-.16-3.46-1.04-4.65-2.64ZM138.71,98.3l-11.26,8.37-26.78-36.05,11.26-8.37,26.78,36.05ZM131.3,74.74c-2.15-3.93-3.3-7.85-3.45-11.76-.15-3.91.76-7.47,2.72-10.69,1.96-3.22,4.87-5.88,8.73-7.99,5.9-3.23,11.55-3.94,16.94-2.14,5.4,1.8,9.81,5.84,13.25,12.13l.24.44c3.36,6.14,4.32,11.95,2.88,17.42-1.44,5.47-5.07,9.8-10.9,12.98-5.61,3.07-11.03,3.85-16.27,2.34-5.24-1.5-9.56-5.06-12.97-10.67l-1.17-2.06ZM143.99,68.79c1.99,3.64,4.02,6,6.09,7.08,2.07,1.08,4.22,1,6.46-.22,4.37-2.39,4.77-6.97,1.19-13.75l-.68-1.24c-3.86-7.06-8.05-9.36-12.57-6.89-4.1,2.24-4.66,6.5-1.67,12.78l1.18,2.24ZM207.57,59.9c-1.65,4.52-4.87,7.55-9.67,9.1-4.69,1.51-8.67,1.3-11.96-.65-3.29-1.95-5.76-5.47-7.41-10.58l-8.95-27.68,13.31-4.3,8.97,27.76c1.18,3.66,3.55,4.92,7.11,3.77,3.05-.99,4.87-2.78,5.46-5.38l-9.69-29.97,13.39-4.33,13.81,42.73-12.48,4.03-1.89-4.49ZM249.21,23.66l-4.6.38c-4.35.68-6.92,2.48-7.72,5.41l4.4,28.09-13.82,2.16-6.94-44.37,12.96-2.03,1.34,5.63c1.64-4.71,4.54-7.39,8.7-8.04,1.48-.23,2.79-.27,3.93-.11l1.76,12.87ZM277.12,31.17c.36-4.47,1.56-8.37,3.58-11.72,2.02-3.35,4.73-5.83,8.14-7.44,3.41-1.61,7.3-2.24,11.69-1.88,6.7.54,11.81,3.05,15.34,7.51,3.52,4.46,5,10.27,4.42,17.41l-.04.5c-.57,6.98-2.95,12.36-7.16,16.14-4.21,3.78-9.62,5.4-16.24,4.86-6.37-.52-11.33-2.84-14.88-6.98-3.55-4.13-5.21-9.48-4.98-16.04l.15-2.36ZM290.99,33.17c-.34,4.14.06,7.22,1.2,9.26,1.14,2.04,2.98,3.16,5.52,3.36,4.96.4,7.81-3.21,8.54-10.84l.11-1.41c.65-8.03-1.59-12.25-6.72-12.66-4.66-.38-7.47,2.88-8.41,9.77l-.25,2.52ZM325.26,59.58l8.18-34.23-6.34-1.51,2.26-9.45,6.34,1.51.83-3.47c1.19-4.98,3.58-8.49,7.17-10.54,3.59-2.04,8.03-2.43,13.34-1.17,1.94.46,4,1.25,6.18,2.37l-2.35,10.02c-.78-.44-1.86-.83-3.26-1.16-4.12-.98-6.6.3-7.45,3.85l-.8,3.35,8.52,2.03-2.26,9.45-8.52-2.04-8.18,34.23-13.64-3.26ZM404.58,72.39c.99-1.89,1.09-3.71.31-5.46-.78-1.75-2.56-4.07-5.33-6.96-2.77-2.89-4.94-5.42-6.52-7.59-5.15-7.04-6.17-13.54-3.05-19.49,1.55-2.96,3.79-5.13,6.7-6.49,2.92-1.36,6.28-1.85,10.11-1.45,3.82.39,7.71,1.62,11.65,3.69,3.85,2.02,6.94,4.51,9.27,7.48,2.33,2.97,3.68,6.17,4.04,9.59.36,3.42-.31,6.76-2.02,10.02l-12.87-6.74c1.14-2.18,1.36-4.22.65-6.12-.71-1.9-2.2-3.45-4.48-4.64-2.3-1.21-4.39-1.65-6.26-1.33-1.87.32-3.21,1.26-4.04,2.83-.72,1.37-.64,3,.25,4.89s2.87,4.39,5.95,7.52c3.08,3.13,5.45,6,7.1,8.62,4.04,6.36,4.52,12.47,1.45,18.33-2.45,4.68-6.14,7.43-11.07,8.26-4.93.82-10.47-.38-16.62-3.6-4.34-2.27-7.86-5.11-10.56-8.51-2.7-3.4-4.23-6.92-4.59-10.56-.36-3.64.39-7.22,2.24-10.75l12.94,6.78c-1.5,2.87-1.87,5.37-1.1,7.51.77,2.14,2.82,4.08,6.16,5.82,2.13,1.12,4.06,1.54,5.78,1.27,1.72-.27,3.02-1.24,3.89-2.91ZM426.25,77.04c2.82-3.49,6-6.04,9.56-7.67s7.19-2.15,10.92-1.56c3.72.59,7.29,2.26,10.72,5.03,5.23,4.22,8.04,9.17,8.44,14.85.4,5.67-1.66,11.3-6.16,16.87l-.31.39c-4.4,5.45-9.4,8.55-15.01,9.3-5.61.75-10.99-.95-16.16-5.13-4.97-4.02-7.76-8.73-8.37-14.15-.61-5.42,1.03-10.77,4.92-16.06l1.45-1.87ZM436.58,86.5c-2.61,3.23-4.01,6.01-4.22,8.33-.21,2.32.68,4.29,2.66,5.88,3.88,3.13,8.26,1.75,13.16-4.15l.89-1.1c5.06-6.26,5.59-11.01,1.58-14.25-3.64-2.94-7.79-1.83-12.45,3.33l-1.62,1.94ZM469.09,141.86c-4.81.21-8.84-1.61-12.11-5.44-3.19-3.75-4.52-7.51-3.99-11.3.54-3.78,2.85-7.42,6.93-10.9l22.14-18.87,9.07,10.65-22.21,18.93c-2.93,2.5-3.18,5.16-.76,8.01,2.08,2.44,4.44,3.44,7.06,2.98l23.98-20.43,9.13,10.71-34.18,29.13-8.51-9.98,3.43-3.47ZM484.77,172.81l-7.54-11.83,53.77-34.25,7.54,11.83-53.77,34.25ZM510,194.34c1.08-.5,1.68-1.47,1.81-2.9.13-1.43-.2-3.89-.97-7.38-.77-3.49-1.07-6.52-.88-9.11.18-2.59.84-4.8,1.96-6.64,1.13-1.84,2.74-3.25,4.85-4.23,3.74-1.74,7.53-1.64,11.39.32,3.86,1.96,6.95,5.43,9.28,10.42,2.5,5.37,3.3,10.25,2.39,14.64-.91,4.39-3.35,7.52-7.31,9.36l-5.93-12.71c3.26-1.52,4.09-4,2.49-7.43-.62-1.33-1.51-2.27-2.67-2.83-1.16-.56-2.29-.58-3.4-.06-1.13.53-1.79,1.5-1.97,2.94-.19,1.43.06,3.46.73,6.09.68,2.63,1.13,5.01,1.36,7.13.75,7.1-1.6,11.92-7.04,14.46-3.71,1.73-7.5,1.49-11.37-.72-3.87-2.21-7.03-5.93-9.47-11.17-1.63-3.49-2.45-6.89-2.47-10.21-.02-3.32.69-6.25,2.13-8.78,1.44-2.54,3.35-4.36,5.74-5.47l5.53,11.85c-1.86.93-2.94,2.19-3.24,3.8-.3,1.61-.02,3.35.86,5.23.81,1.73,1.76,2.86,2.87,3.4,1.11.54,2.22.54,3.35.02Z"/>
      <g>
        <path class="cls-6" d="M142.99,67.79c1.4,2.57,2.83,4.49,4.27,5.78-1.1-1.22-2.19-2.8-3.27-4.78l-1.18-2.24c-2.99-6.28-2.44-10.54,1.67-12.78,2.91-1.59,5.68-1.19,8.32,1.17-2.93-3.23-6.04-3.97-9.32-2.17-4.1,2.24-4.66,6.5-1.67,12.78l1.18,2.24Z"/>
        <path class="cls-6" d="M51.33,132.44c-1.85,2.54-1.62,4.74.65,6.6-1.29-1.64-1.18-3.51.35-5.6,2.11-2.88,4.83-3.1,8.18-.66l.79.58.13-.18-1.92-1.4c-3.35-2.44-6.07-2.22-8.18.66Z"/>
        <path class="cls-6" d="M43.04,149.78c.61.68,1.3,1.31,2.08,1.89l8.25-11.29c-.41-.3-.75-.61-1.05-.93l-8.2,11.23c-.39-.28-.74-.58-1.08-.89Z"/>
        <path class="cls-6" d="M65.44,150.17c-1.93-2.31-1.72-5.07.62-8.29l2.4-3.28,4.95,3.61c-.05-.13-.09-.26-.15-.38l-5.8-4.24-2.4,3.28c-2.7,3.69-2.57,6.79.38,9.29Z"/>
        <path class="cls-6" d="M190.86,52.55c.49,1.53,1.21,2.62,2.12,3.31-.45-.62-.82-1.38-1.12-2.31l-8.97-27.76-.61.2,8.59,26.56Z"/>
        <polygon class="cls-6" points="220.93 59.36 208.97 63.23 209.46 64.39 221.93 60.36 208.13 17.63 207.51 17.83 220.93 59.36"/>
        <path class="cls-6" d="M172.62,72.14c1.44-5.47.48-11.28-2.88-17.42l-.24-.44c-1.73-3.16-3.7-5.75-5.93-7.78,1.82,1.86,3.47,4.1,4.93,6.78l.24.44c3.36,6.14,4.32,11.95,2.88,17.42-1.44,5.47-5.07,9.8-10.9,12.98-5.61,3.07-11.03,3.85-16.27,2.34-3.08-.88-5.83-2.49-8.27-4.79,2.69,2.84,5.77,4.79,9.27,5.79,5.24,1.5,10.66.72,16.27-2.34,5.83-3.19,9.46-7.51,10.9-12.98Z"/>
        <polygon class="cls-6" points="111.77 62.37 137.71 97.3 126.62 105.54 127.45 106.66 138.71 98.3 111.93 62.25 111.77 62.37"/>
        <path class="cls-6" d="M22.63,166.63c-2.23-1.05-4.28-1.17-6.15-.39-1.87.79-3.35,2.35-4.44,4.68-1.11,2.35-1.46,4.46-1.06,6.31.31,1.43.98,2.53,2.01,3.3-.48-.64-.82-1.4-1.01-2.3-.4-1.85-.05-3.96,1.06-6.31,1.09-2.33,2.57-3.89,4.44-4.68,1.87-.79,3.92-.66,6.15.39l6.17-13.15c-.41-.19-.81-.37-1.22-.53l-5.95,12.68Z"/>
        <polygon class="cls-6" points="92.93 75.98 113 117.09 102.75 127.02 62.29 105.66 61.98 105.96 103.75 128.02 114 118.09 93.28 75.64 92.93 75.98"/>
        <path class="cls-6" d="M35.35,184.46c2.76-2.89,5-4.76,6.72-5.62,1.72-.86,3.54-.84,5.47.07.43.2.81.43,1.15.68-.52-.69-1.24-1.25-2.15-1.68-1.93-.91-3.75-.93-5.47-.07-1.72.86-3.96,2.73-6.72,5.62-2.76,2.89-5.19,5.17-7.29,6.85-6.81,5.45-13.26,6.75-19.34,3.89-1.43-.67-2.69-1.51-3.78-2.51,1.29,1.45,2.89,2.62,4.78,3.51,6.09,2.86,12.53,1.56,19.34-3.89,2.1-1.67,4.53-3.96,7.29-6.85Z"/>
        <path class="cls-6" d="M57.9,168.47c1.74,1.9,2.92,4.2,3.49,6.92,1.04,4.89.08,10.48-2.87,16.76-2.08,4.43-4.76,8.07-8.04,10.92-3.28,2.85-6.73,4.53-10.35,5.05-3.21.46-6.42.04-9.62-1.24l-.22.47c3.61,1.69,7.22,2.28,10.84,1.76,3.62-.52,7.07-2.2,10.35-5.05,3.28-2.85,5.96-6.49,8.04-10.92,2.95-6.29,3.91-11.87,2.87-16.76-.68-3.21-2.19-5.85-4.49-7.92Z"/>
        <path class="cls-6" d="M92.65,136.96l-7.92,10.84c-1.03-.14-2.38-.57-4.03-1.3,1.1,3.99.28,7.85-2.44,11.58-2.5,3.42-5.65,5.57-9.47,6.45-3.81.88-7.28.18-10.41-2.11-.58-.42-1.1-.87-1.6-1.33.74.82,1.6,1.6,2.6,2.33,3.13,2.29,6.6,2.99,10.41,2.11,3.81-.88,6.97-3.03,9.47-6.45,2.73-3.73,3.54-7.59,2.44-11.58,1.66.73,3,1.17,4.03,1.3l8.25-11.29-.57-.42c-.25-.03-.5-.08-.76-.13Z"/>
        <path class="cls-6" d="M390.14,70.49c-.63-.74-1.1-1.5-1.38-2.29-.77-2.14-.4-4.64,1.1-7.51l-1.18-.62c-1.34,2.71-1.65,5.09-.92,7.13.42,1.15,1.22,2.25,2.38,3.29Z"/>
        <path class="cls-6" d="M426.73,35.11c2.33,2.97,3.68,6.17,4.04,9.59.36,3.42-.31,6.76-2.02,10.02l-11.69-6.12c-.06.13-.11.25-.18.38l12.87,6.74c1.71-3.26,2.38-6.6,2.02-10.02-.36-3.42-1.71-6.62-4.04-9.59-.75-.95-1.58-1.84-2.48-2.7.52.55,1.02,1.11,1.48,1.7Z"/>
        <path class="cls-6" d="M490.15,104.99l-22.21,18.93c-2.93,2.5-3.18,5.16-.76,8.01.37.43.75.8,1.14,1.15-.05-.05-.09-.09-.14-.15-2.42-2.84-2.17-5.51.76-8.01l22.21-18.93-9.07-10.65-.09.07,8.16,9.57Z"/>
        <path class="cls-6" d="M433.83,99.54c-1.13-1.36-1.62-2.92-1.46-4.71.2-2.32,1.61-5.1,4.22-8.33l1.62-1.94c4.66-5.16,8.82-6.27,12.45-3.33.06.05.12.11.18.16-.34-.4-.72-.79-1.18-1.16-3.64-2.94-7.79-1.83-12.45,3.33l-1.62,1.94c-2.61,3.23-4.01,6.01-4.22,8.33-.2,2.24.63,4.14,2.46,5.71Z"/>
        <path class="cls-6" d="M359.85,12.12c-.78-.44-1.86-.83-3.26-1.16-4.12-.98-6.6.3-7.45,3.85l-.8,3.35,1.17.28.63-2.63c.85-3.55,3.33-4.84,7.45-3.85,1.4.33,2.49.72,3.26,1.16l2.35-10.02c-.38-.19-.74-.36-1.11-.53l-2.24,9.56Z"/>
        <path class="cls-6" d="M233.82,17.94c.15-.42.31-.8.48-1.19l-.82-3.44-.73.11,1.08,4.51Z"/>
        <path class="cls-6" d="M292.85,43.4c-.24-.3-.46-.61-.66-.96-1.14-2.04-1.54-5.12-1.2-9.26l.25-2.52c.95-6.89,3.75-10.15,8.41-9.77,1.52.12,2.79.59,3.8,1.39-1.13-1.41-2.72-2.22-4.8-2.39-4.66-.38-7.47,2.88-8.41,9.77l-.25,2.52c-.34,4.14.06,7.22,1.2,9.26.45.8,1,1.45,1.66,1.96Z"/>
        <path class="cls-6" d="M206.57,58.9c-1.65,4.52-4.87,7.55-9.67,9.1-4.69,1.51-8.67,1.3-11.96-.65-.72-.43-1.4-.94-2.04-1.52.92,1.02,1.93,1.87,3.04,2.52,3.29,1.95,7.28,2.16,11.96.65,4.54-1.47,7.65-4.28,9.37-8.41l-.71-1.68Z"/>
        <polygon class="cls-6" points="357.85 21.19 356.68 20.91 354.6 29.64 346.08 27.6 337.9 61.84 325.43 58.86 325.26 59.58 338.9 62.84 347.08 28.6 355.6 30.64 357.85 21.19"/>
        <rect class="cls-6" x="329.4" y="21.43" width=".74" height="5.31" transform="translate(229.78 339.25) rotate(-76.58)"/>
        <path class="cls-6" d="M104.56,51.56c1.19,1.6,1.58,3.34,1.19,5.22-.4,1.88-1.52,3.5-3.36,4.87-1.84,1.37-3.72,1.97-5.64,1.81-1.31-.11-2.45-.57-3.42-1.35,1.16,1.41,2.62,2.2,4.42,2.35,1.91.16,3.79-.44,5.64-1.81,1.84-1.37,2.96-2.99,3.36-4.87.4-1.88,0-3.62-1.19-5.22-.38-.51-.79-.93-1.24-1.29.08.1.16.19.24.29Z"/>
        <path class="cls-6" d="M320.27,35.05c.58-7.14-.89-12.95-4.42-17.41-.61-.77-1.28-1.46-1.98-2.11.33.36.67.72.98,1.11,3.52,4.46,5,10.27,4.42,17.41l-.04.5c-.57,6.98-2.95,12.36-7.16,16.14-4.21,3.78-9.62,5.4-16.24,4.86-5.45-.44-9.86-2.22-13.24-5.31,3.5,3.7,8.24,5.82,14.24,6.31,6.62.54,12.03-1.08,16.24-4.86,4.21-3.78,6.59-9.16,7.16-16.14l.04-.5Z"/>
        <path class="cls-6" d="M459.41,104.94l.31-.39c4.5-5.57,6.55-11.2,6.16-16.87-.35-5.06-2.64-9.53-6.84-13.44,3.55,3.67,5.51,7.81,5.84,12.44.4,5.67-1.66,11.3-6.16,16.87l-.31.39c-4.4,5.45-9.4,8.55-15.01,9.3-5.61.75-10.99-.95-16.16-5.13-.55-.45-1.07-.91-1.57-1.37.79.81,1.63,1.61,2.57,2.37,5.17,4.17,10.55,5.88,16.16,5.13,5.61-.75,10.61-3.85,15.01-9.3Z"/>
        <path class="cls-6" d="M523,175.77c1.1-.51,2.24-.49,3.4.06.3.14.58.32.84.51-.51-.65-1.12-1.16-1.84-1.51-1.16-.56-2.29-.58-3.4-.06-1.13.53-1.79,1.5-1.97,2.94-.19,1.43.06,3.46.73,6.09.68,2.63,1.13,5.01,1.36,7.13.75,7.1-1.6,11.92-7.04,14.46-3.71,1.73-7.5,1.49-11.37-.72-1.25-.71-2.42-1.6-3.52-2.63,1.38,1.48,2.88,2.7,4.52,3.63,3.87,2.21,7.66,2.45,11.37.72,5.44-2.54,7.79-7.36,7.04-14.46-.23-2.12-.68-4.5-1.36-7.13-.68-2.63-.92-4.66-.73-6.09.19-1.43.85-2.41,1.97-2.94Z"/>
        <path class="cls-6" d="M501.92,184.69c-.3,1.61-.02,3.35.86,5.23.64,1.37,1.37,2.34,2.19,2.97-.43-.54-.83-1.18-1.19-1.97-.88-1.88-1.16-3.62-.86-5.23.3-1.61,1.38-2.88,3.24-3.8l-5.53-11.85c-.15.07-.29.15-.43.22l4.96,10.63c-1.86.93-2.94,2.19-3.24,3.8Z"/>
        <path class="cls-6" d="M537.44,174.81c-1.49-3.2-3.31-5.77-5.43-7.73,1.7,1.81,3.18,4.04,4.43,6.73,2.5,5.37,3.3,10.25,2.39,14.64-.88,4.23-3.18,7.27-6.88,9.14l.57,1.23c3.96-1.85,6.4-4.97,7.31-9.36.91-4.39.12-9.27-2.39-14.64Z"/>
        <polygon class="cls-6" points="531 126.73 530.75 126.9 537.54 137.56 484.03 171.65 484.77 172.81 538.54 138.56 531 126.73"/>
        <polygon class="cls-6" points="499.23 115.47 499.14 115.54 507.35 125.17 473.26 154.23 474.17 155.3 508.35 126.17 499.23 115.47"/>
        <path class="cls-6" d="M416.07,60.74c-1.66-2.62-4.03-5.49-7.1-8.62-3.08-3.13-5.06-5.63-5.95-7.52s-.97-3.51-.25-4.89c.82-1.57,2.17-2.51,4.04-2.83,1.87-.32,3.96.13,6.26,1.33.83.43,1.54.91,2.16,1.44-.79-.93-1.84-1.75-3.16-2.44-2.3-1.21-4.39-1.65-6.26-1.33-1.87.32-3.21,1.26-4.04,2.83-.72,1.37-.64,3,.25,4.89s2.87,4.39,5.95,7.52c3.08,3.13,5.45,6,7.1,8.62,4.04,6.36,4.52,12.47,1.45,18.33-2.45,4.68-6.14,7.43-11.07,8.26-4.93.82-10.47-.38-16.62-3.6-3.01-1.58-5.62-3.43-7.85-5.56,2.43,2.54,5.37,4.73,8.85,6.56,6.15,3.22,11.69,4.42,16.62,3.6,4.93-.82,8.62-3.57,11.07-8.26,3.07-5.86,2.58-11.97-1.45-18.33Z"/>
        <path class="cls-6" d="M468.09,140.86c-4.06.17-7.56-1.11-10.52-3.82,2.7,2.89,5.88,4.49,9.57,4.78l.95-.96Z"/>
        <path class="cls-6" d="M246.57,10.71l1.64,11.95-4.6.38c-4.35.68-6.92,2.48-7.72,5.41l4.4,28.09-13,2.03.18,1.13,13.82-2.16-4.4-28.09c.8-2.93,3.38-4.73,7.72-5.41l4.6-.38-1.76-12.87c-.28-.04-.57-.06-.87-.08Z"/>
      </g>
    </g>
  </g>
  <path class="cls-2" d="M141.53,523.82l11.94-20.65,7.08,4.09c2.34,1.35,3.84,2.85,4.52,4.49.68,1.64.48,3.39-.59,5.24-.55.95-1.29,1.65-2.24,2.11-.95.46-2.03.62-3.26.46.94.95,1.47,2.02,1.6,3.21.13,1.19-.15,2.37-.83,3.54-1.12,1.94-2.6,3.07-4.45,3.39-1.85.32-3.93-.19-6.24-1.53l-7.53-4.35ZM150.51,516.58l-3.73,6.45,3.99,2.3c1.13.65,2.17.88,3.12.69.96-.19,1.72-.78,2.3-1.78,1.24-2.15.78-3.88-1.39-5.19l-4.28-2.48ZM152.03,513.94l3.52,2.03c1.12.64,2.13.9,3.06.75s1.65-.68,2.19-1.6c.59-1.02.73-1.93.41-2.72s-1.09-1.54-2.32-2.25l-3.49-2.02-3.35,5.8ZM170.27,539.12c-.01-.38.09-.94.29-1.69-1.71.65-3.4.58-5.05-.2-1.61-.76-2.7-1.84-3.29-3.24-.58-1.4-.55-2.78.09-4.13.81-1.71,2.06-2.72,3.77-3.03,1.7-.31,3.73.09,6.09,1.21l2.21,1.05.5-1.05c.39-.83.48-1.6.25-2.32-.23-.72-.82-1.3-1.76-1.75-.82-.39-1.59-.5-2.31-.34s-1.23.56-1.52,1.19l-3.6-1.71c.42-.88,1.1-1.56,2.04-2.05.94-.49,2.02-.71,3.23-.67,1.21.04,2.43.35,3.66.94,1.88.89,3.15,2.07,3.82,3.54s.61,3.07-.17,4.79l-3.43,7.23c-.68,1.44-1.03,2.69-1.03,3.74l-.12.25-3.67-1.74ZM167.55,534.66c.71.34,1.46.48,2.25.43.79-.05,1.48-.29,2.07-.72l1.43-3.02-1.94-.92c-1.33-.63-2.44-.88-3.34-.73-.89.15-1.54.64-1.94,1.49-.33.69-.36,1.35-.09,1.98.26.63.78,1.12,1.55,1.49ZM171.6,514.98c.23-.49.6-.83,1.09-1.01s1.03-.13,1.61.15c.58.28.96.66,1.14,1.16.18.49.15.99-.09,1.48-.23.49-.6.83-1.09,1-.5.18-1.03.13-1.62-.15-.58-.28-.96-.66-1.13-1.15-.17-.49-.14-.99.09-1.48ZM178.36,518.21c.23-.49.6-.83,1.09-1.01.49-.18,1.03-.13,1.61.15.58.28.96.66,1.14,1.16.18.49.15.99-.09,1.48-.23.49-.6.83-1.09,1.01-.49.18-1.03.13-1.62-.15-.58-.28-.96-.66-1.13-1.15s-.14-.99.09-1.48ZM187.99,527.44l-.63,1.95c1.79-1.01,3.68-1.13,5.67-.37,3.45,1.32,4.44,3.97,2.99,7.94l-4.2,10.94-3.72-1.43,4.11-10.72c.4-1.05.47-1.92.21-2.59-.26-.68-.91-1.22-1.94-1.61-1.5-.58-2.88-.33-4.13.75l-4.52,11.78-3.72-1.43,6.35-16.55,3.5,1.34ZM204.42,543.92l-2.22,1.24-1.66,5.54-3.81-1.14,7.22-24.11,3.81,1.14-4.17,13.91,1.64-1.13,6.28-3.88,4.58,1.37-8.43,5.19,4.02,12-4.41-1.32-2.86-8.79ZM224.96,556.99c-.1-.37-.13-.94-.09-1.71-1.52,1.02-3.18,1.33-4.97.94-1.74-.38-3.05-1.19-3.93-2.43-.88-1.23-1.16-2.58-.84-4.04.41-1.85,1.4-3.11,2.99-3.8s3.66-.75,6.21-.19l2.38.53.25-1.14c.2-.9.1-1.67-.28-2.32-.38-.65-1.09-1.09-2.11-1.31-.89-.19-1.66-.13-2.32.19-.66.32-1.07.82-1.22,1.5l-3.89-.86c.21-.95.72-1.77,1.53-2.46.81-.69,1.81-1.15,3-1.38,1.19-.23,2.45-.2,3.78.09,2.03.45,3.53,1.31,4.51,2.6.98,1.28,1.28,2.85.91,4.71l-1.72,7.81c-.34,1.56-.4,2.85-.16,3.87l-.06.27-3.97-.87ZM221.3,553.25c.77.17,1.53.14,2.29-.08.76-.22,1.38-.61,1.86-1.17l.72-3.26-2.1-.46c-1.44-.32-2.58-.3-3.41.04-.84.34-1.35.97-1.56,1.89-.16.75-.05,1.4.35,1.95s1.01.92,1.85,1.1ZM227.45,530.19c.99.22,1.76.73,2.3,1.54.54.81.71,1.66.51,2.57-.2.91-.7,1.61-1.51,2.1-.81.49-1.72.63-2.75.4-1.03-.23-1.81-.74-2.34-1.52s-.69-1.63-.49-2.54c.2-.91.71-1.61,1.53-2.12s1.74-.65,2.75-.43ZM224.93,533.13c-.11.5-.03.96.25,1.39.28.42.66.69,1.15.8.5.11.96.03,1.38-.23.42-.26.69-.65.8-1.17.11-.49.03-.95-.22-1.38-.26-.43-.65-.7-1.17-.82-.52-.12-.99-.03-1.41.25-.42.28-.68.67-.78,1.16ZM243.96,555.3c.1-.7-.11-1.28-.64-1.73-.53-.45-1.44-.91-2.74-1.39-1.3-.47-2.37-.99-3.2-1.55-1.83-1.24-2.62-2.76-2.36-4.56.22-1.51,1.04-2.69,2.46-3.52,1.42-.83,3.12-1.11,5.08-.82,2.1.3,3.72,1.07,4.86,2.29,1.14,1.22,1.59,2.66,1.36,4.32l-3.94-.57c.11-.76-.08-1.43-.57-2.01s-1.2-.94-2.13-1.08c-.87-.12-1.6-.03-2.2.29-.6.32-.95.82-1.05,1.49-.09.61.1,1.11.56,1.52s1.44.89,2.94,1.46c1.5.56,2.65,1.14,3.47,1.74.81.6,1.39,1.26,1.72,1.98.33.72.43,1.55.29,2.49-.23,1.58-1.07,2.76-2.52,3.55s-3.23,1.03-5.35.73c-1.44-.21-2.68-.65-3.73-1.33-1.05-.68-1.82-1.52-2.32-2.52-.5-1-.67-2.02-.52-3.07l3.83.55c-.08.94.17,1.7.74,2.3.58.6,1.4.97,2.47,1.13,1.04.15,1.85.07,2.45-.25s.94-.79,1.03-1.43ZM258.22,556.5l4.67-12.37,4.1.3-7.43,17.23-3.45-.25-4.88-18.13,4.12.3,2.86,12.93ZM273.17,562.21l-3.98-.09.39-17.72,3.98.09-.39,17.72ZM269.44,539.79c.01-.61.22-1.12.62-1.51.4-.39.96-.58,1.68-.57.72.02,1.27.23,1.66.64.38.41.57.92.56,1.54-.01.6-.22,1.1-.62,1.49-.4.39-.96.58-1.68.56s-1.27-.23-1.65-.63-.56-.91-.55-1.51ZM283.79,554.54l-1.71,1.87.18,5.78-3.98.12-.77-25.16,3.98-.12.45,14.51,1.2-1.59,4.73-5.67,4.78-.15-6.36,7.59,7.6,10.11-4.6.14-5.49-7.44ZM304.29,561.13c-2.51.26-4.63-.33-6.35-1.75-1.72-1.42-2.72-3.45-2.99-6.08l-.05-.49c-.18-1.76,0-3.37.54-4.82.54-1.46,1.38-2.63,2.53-3.53,1.15-.9,2.48-1.42,3.99-1.58,2.4-.25,4.34.33,5.8,1.73,1.47,1.4,2.34,3.5,2.63,6.3l.16,1.6-11.52,1.18c.27,1.44.87,2.55,1.81,3.31.94.76,2.06,1.07,3.35.94,1.81-.19,3.22-1.07,4.21-2.65l2.34,1.82c-.6,1.13-1.46,2.04-2.58,2.74-1.12.7-2.41,1.13-3.88,1.28ZM302.27,546.06c-1.09.11-1.92.58-2.52,1.41-.59.83-.91,1.93-.95,3.31l7.55-.77-.03-.29c-.22-1.32-.68-2.28-1.37-2.9-.69-.62-1.58-.87-2.68-.75ZM315.99,541.37l.48,2c1.01-1.79,2.56-2.87,4.66-3.25,3.63-.65,5.86,1.1,6.67,5.25l2.07,11.53-3.92.7-2.03-11.3c-.2-1.11-.59-1.88-1.16-2.33-.57-.45-1.4-.57-2.49-.38-1.58.28-2.63,1.21-3.15,2.78l2.23,12.42-3.92.7-3.13-17.45,3.69-.66ZM358.68,549.1l-15.37,4.6-.78-2.62,5.13-10.58c.73-1.55,1.21-2.81,1.43-3.77s.21-1.85-.04-2.68c-.33-1.09-.9-1.88-1.71-2.36-.81-.49-1.74-.57-2.77-.26-1.23.37-2.08,1.03-2.53,1.99-.45.96-.49,2.09-.09,3.4l-3.81,1.14c-.42-1.39-.48-2.74-.18-4.04.3-1.3.95-2.44,1.94-3.41.99-.97,2.26-1.69,3.8-2.15,2.22-.66,4.14-.63,5.75.1,1.62.73,2.72,2.08,3.31,4.05.34,1.14.38,2.43.11,3.88-.27,1.44-.9,3.18-1.89,5.21l-3.8,7.65,10.61-3.18.91,3.04ZM373.51,532.72c1.24,3.2,1.58,5.84,1.01,7.93-.57,2.09-2.07,3.61-4.51,4.56-2.4.93-4.52.84-6.35-.27-1.83-1.11-3.37-3.21-4.6-6.31l-1.49-3.85c-1.24-3.2-1.57-5.83-1-7.89.58-2.06,2.09-3.57,4.54-4.52,2.43-.94,4.55-.87,6.35.22,1.8,1.09,3.32,3.19,4.56,6.28l1.49,3.85ZM368.19,530.01c-.81-2.09-1.69-3.51-2.64-4.26-.95-.75-2.04-.89-3.29-.4-1.21.47-1.92,1.28-2.14,2.42-.21,1.14.05,2.7.77,4.67l1.96,5.04c.81,2.08,1.7,3.51,2.67,4.3.98.79,2.08.95,3.33.47,1.19-.46,1.89-1.27,2.09-2.44.2-1.16-.07-2.75-.82-4.77l-1.95-5.03ZM395.9,533.24l-14.45,6.97-1.19-2.46,3.39-11.26c.48-1.65.75-2.97.81-3.95.06-.98-.09-1.86-.46-2.64-.49-1.02-1.18-1.71-2.06-2.06s-1.81-.29-2.78.18c-1.16.56-1.89,1.35-2.19,2.37-.3,1.02-.15,2.14.44,3.37l-3.59,1.73c-.63-1.31-.9-2.63-.81-3.96s.55-2.56,1.37-3.67,1.96-2.02,3.41-2.72c2.09-1.01,3.98-1.28,5.69-.81,1.71.47,3.01,1.62,3.9,3.47.52,1.07.76,2.34.72,3.81-.04,1.47-.38,3.28-1.04,5.44l-2.54,8.16,9.98-4.81,1.38,2.86ZM406.93,517.12l2.56-1.5,1.61,2.76-2.56,1.5,2.68,4.58-3.44,2.01-2.68-4.58-8.9,5.2-1.32-2.04.75-19.11,3.55-2.07,7.74,13.26ZM398.11,522.27l5.39-3.15-5.02-8.6v.6s-.37,11.15-.37,11.15Z"/>
  <g>
    <path class="cls-6" d="M221.03,543.21c.15-.68.56-1.18,1.22-1.5.66-.32,1.44-.38,2.32-.19.46.1.84.25,1.17.43-.02-.04-.03-.08-.06-.12-.38-.65-1.09-1.09-2.11-1.31-.89-.19-1.66-.13-2.32.19-.66.32-1.07.82-1.22,1.5l-2.65-.58c-.1.23-.18.48-.23.73l3.89.86Z"/>
    <path class="cls-6" d="M219.3,551.88c-.26-.49-.34-1.05-.2-1.68.2-.92.72-1.55,1.56-1.89.84-.34,1.97-.35,3.41-.04l.93.21.16-.74-2.1-.46c-1.44-.32-2.58-.3-3.41.04-.84.34-1.35.97-1.56,1.89-.16.75-.05,1.4.35,1.95.22.3.5.54.85.73Z"/>
    <path class="cls-6" d="M224.71,530.97c-.42.28-.68.67-.78,1.16-.11.5-.03.96.25,1.39.21.33.5.56.84.7-.14-.34-.18-.7-.09-1.09.11-.49.37-.88.78-1.16.41-.28.88-.37,1.41-.25.11.02.21.06.3.1-.04-.09-.08-.19-.13-.28-.26-.43-.65-.7-1.17-.82-.52-.12-.99-.03-1.41.25Z"/>
    <path class="cls-6" d="M228.75,530.73c.54.81.71,1.66.51,2.57-.2.91-.7,1.61-1.51,2.1-.81.49-1.72.63-2.75.4-.51-.11-.97-.3-1.35-.55,0,0,0,.02.01.03.53.79,1.31,1.29,2.34,1.52,1.02.23,1.94.09,2.75-.4.81-.49,1.31-1.19,1.51-2.1.2-.91.03-1.76-.51-2.57-.27-.41-.61-.74-1-1,0,0,0,0,0,0Z"/>
    <path class="cls-6" d="M237.61,555.34c-.29-.5-.41-1.1-.36-1.78l-.96-.14c.09.55.32,1.04.7,1.44.18.18.39.34.61.48Z"/>
    <polygon class="cls-6" points="202.6 539.49 204.24 538.36 207.76 526.58 206.57 526.23 202.6 539.49"/>
    <path class="cls-6" d="M174.43,514.28c.18.49.15.99-.09,1.48-.23.49-.6.83-1.09,1-.5.18-1.03.13-1.62-.15-.03-.01-.05-.03-.08-.05.19.44.54.79,1.08,1.05.58.28,1.12.33,1.62.15.49-.18.86-.51,1.09-1,.23-.49.26-.99.09-1.48-.17-.47-.52-.84-1.05-1.11.02.04.04.07.05.11Z"/>
    <path class="cls-6" d="M186.36,528.39c.5-.28,1.01-.49,1.52-.63l.1-.32-1.18-.45-.45,1.4Z"/>
    <path class="cls-6" d="M166.14,533.43c-.05-.08-.1-.17-.14-.26-.26-.63-.23-1.29.09-1.98.4-.85,1.05-1.35,1.94-1.49.89-.15,2,.1,3.34.73l.74.35.2-.43-1.94-.92c-1.33-.63-2.44-.88-3.34-.73-.89.15-1.54.64-1.94,1.49-.33.69-.36,1.35-.09,1.98.21.51.6.92,1.14,1.26Z"/>
    <path class="cls-6" d="M157.88,509.15l-3.49-2.02-3.35,5.8,1.18.68,3.17-5.49,3.49,2.02c.39.22.71.45,1.01.68-.41-.58-1.08-1.14-2.01-1.68Z"/>
    <path class="cls-6" d="M181.19,517.5c.18.49.15.99-.09,1.48-.23.49-.6.83-1.09,1.01-.49.18-1.03.13-1.62-.15-.03-.01-.05-.03-.08-.05.19.44.54.79,1.08,1.05.58.28,1.12.33,1.62.15.49-.18.86-.51,1.09-1.01.23-.49.26-.99.09-1.48-.17-.47-.52-.84-1.05-1.11.02.04.04.07.05.11Z"/>
    <path class="cls-6" d="M169.53,524.81c.3-.63.81-1.03,1.52-1.19s1.49-.05,2.31.34c.21.1.39.2.56.32-.3-.52-.81-.96-1.56-1.32-.82-.39-1.59-.5-2.31-.34s-1.23.56-1.52,1.19l-2.36-1.12c-.08.13-.17.27-.24.41l3.6,1.71Z"/>
    <path class="cls-6" d="M315.47,542.36c.17-.3.36-.58.56-.84l-.04-.16-.73.13.21.86Z"/>
    <path class="cls-6" d="M386.41,516.78c.52,1.07.76,2.34.72,3.81-.04,1.47-.38,3.28-1.04,5.44l-2.54,8.16,1.54-.74,2-6.41c.66-2.16,1-3.97,1.04-5.44.04-1.47-.2-2.74-.72-3.81-.51-1.05-1.15-1.87-1.92-2.47.34.43.65.92.92,1.47Z"/>
    <path class="cls-6" d="M364.53,540.78s.1.07.14.1c-.65-.82-1.25-1.96-1.82-3.41l-1.96-5.04c-.73-1.97-.99-3.52-.77-4.67.21-1.14.92-1.95,2.14-2.42,1.19-.46,2.23-.35,3.15.31-.28-.37-.57-.67-.87-.91-.95-.75-2.04-.89-3.29-.4-1.21.47-1.92,1.28-2.14,2.42-.21,1.14.05,2.7.77,4.67l1.96,5.04c.81,2.08,1.7,3.51,2.67,4.3Z"/>
    <path class="cls-6" d="M351.73,531.5c.34,1.14.38,2.43.11,3.88-.27,1.44-.9,3.18-1.89,5.21l-3.8,7.65,1.76-.53,3.04-6.13c.99-2.03,1.62-3.76,1.89-5.21.27-1.44.23-2.74-.11-3.88-.44-1.48-1.17-2.6-2.19-3.38.51.66.91,1.45,1.19,2.38Z"/>
    <polygon class="cls-6" points="398.16 520.66 398.48 511.24 397.47 509.52 397.48 510.12 397.11 521.27 398.16 520.66"/>
    <rect class="cls-6" x="402.38" y="503" width=".36" height="13.98" transform="translate(-202.21 272.52) rotate(-30.28)"/>
    <path class="cls-6" d="M150.51,516.58l4.28,2.48c.19.11.35.24.51.36-.34-.49-.83-.95-1.51-1.36l-4.28-2.48-3.73,6.45,1.18.68,3.55-6.14Z"/>
    <path class="cls-6" d="M299.76,547.47c.59-.83,1.43-1.3,2.52-1.41.89-.09,1.63.07,2.25.45-.17-.26-.36-.5-.57-.7-.69-.62-1.58-.87-2.68-.75-1.09.11-1.92.58-2.52,1.41-.59.83-.91,1.93-.95,3.31l1.11-.11c.14-.87.42-1.6.84-2.2Z"/>
    <path class="cls-6" d="M309.4,549.92l.16,1.6-11.52,1.18c.27,1.44.87,2.55,1.81,3.31.06.05.13.08.2.13-.49-.66-.83-1.47-1.01-2.44l11.52-1.18-.16-1.6c-.29-2.8-1.16-4.9-2.63-6.3-.13-.12-.27-.23-.4-.34,1.11,1.37,1.79,3.25,2.03,5.64Z"/>
    <path class="cls-6" d="M239.59,551.18c-1.3-.47-2.37-.99-3.2-1.55-.18-.12-.35-.25-.51-.38.38.49.88.96,1.51,1.38.83.56,1.9,1.08,3.2,1.55.95.35,1.68.68,2.22,1.02-.11-.23-.26-.44-.48-.63-.53-.45-1.44-.91-2.74-1.39Z"/>
    <polygon class="cls-6" points="257.22 555.5 257.71 554.2 255.36 543.57 254.57 543.52 257.22 555.5"/>
    <polygon class="cls-6" points="280.93 550.55 281.86 549.31 281.48 537.04 280.51 537.07 280.93 550.55"/>
    <path class="cls-6" d="M242.15,544.67c.55.08,1.01.25,1.41.48-.08-.14-.17-.28-.28-.41-.49-.58-1.2-.94-2.13-1.08-.87-.12-1.6-.03-2.2.29-.6.32-.95.82-1.05,1.49-.09.61.1,1.11.56,1.52.13.12.33.25.55.38-.12-.27-.16-.57-.11-.9.1-.67.45-1.17,1.05-1.49.6-.32,1.34-.42,2.2-.29Z"/>
    <polygon class="cls-6" points="292.63 544.14 290.75 544.2 285.27 550.73 292.88 560.84 288.53 560.97 289.28 561.98 293.88 561.84 286.27 551.73 292.63 544.14"/>
    <polygon class="cls-6" points="357.12 546.25 357.68 548.1 342.95 552.51 343.31 553.7 358.68 549.1 357.76 546.06 357.12 546.25"/>
    <path class="cls-6" d="M321.76,542.95c-.57-.45-1.4-.57-2.49-.38-1.58.28-2.63,1.21-3.15,2.78l2.23,12.42-3.12.56.21,1.14,3.92-.7-2.23-12.42c.52-1.57,1.57-2.5,3.15-2.78.88-.16,1.59-.09,2.13.17-.18-.33-.39-.6-.64-.8Z"/>
    <path class="cls-6" d="M342.02,533.41c.45-.96,1.3-1.62,2.53-1.99,1.04-.31,1.96-.22,2.77.26.04.02.07.06.11.08-.3-.45-.67-.82-1.11-1.08-.81-.49-1.74-.57-2.77-.26-1.23.37-2.08,1.03-2.53,1.99-.45.96-.49,2.09-.09,3.4l-3.08.92c.06.4.14.81.27,1.22l3.81-1.14c-.39-1.31-.36-2.44.09-3.4Z"/>
    <path class="cls-6" d="M325.38,540.85c.65.87,1.12,2.03,1.41,3.51l2.07,11.53-3.12.56.21,1.14,3.92-.7-2.07-11.53c-.42-2.15-1.23-3.65-2.41-4.51Z"/>
    <path class="cls-6" d="M272.75,537.92c.13.29.2.61.19.97-.01.6-.22,1.1-.62,1.49-.4.39-.96.58-1.68.56-.39,0-.72-.08-1.01-.2.09.2.21.4.37.57.38.41.93.62,1.65.63s1.28-.17,1.68-.56c.4-.39.61-.89.62-1.49.01-.61-.17-1.12-.56-1.54-.18-.19-.39-.33-.64-.44Z"/>
    <polygon class="cls-6" points="283.64 554.7 282.79 553.54 281.07 555.41 281.25 561.19 278.24 561.29 278.27 562.32 282.25 562.19 282.07 556.41 283.64 554.7"/>
    <path class="cls-6" d="M307.17,558.85c-1.12.7-2.41,1.13-3.88,1.28-2.51.26-4.62-.32-6.34-1.74.3.36.63.69.99.99,1.72,1.42,3.84,2,6.35,1.75,1.47-.15,2.76-.58,3.88-1.28,1.12-.7,1.98-1.62,2.58-2.74l-1.09-.85c-.59,1.05-1.42,1.92-2.48,2.59Z"/>
    <polygon class="cls-6" points="404.11 520.88 395.46 525.93 396.21 527.08 404.8 522.07 404.11 520.88"/>
    <polygon class="cls-6" points="408.55 519.88 411.11 518.38 409.5 515.62 409.19 515.8 410.11 517.38 407.55 518.88 410.22 523.46 407.09 525.29 407.78 526.47 411.22 524.46 408.55 519.88"/>
    <path class="cls-6" d="M381.95,517.84c.22.09.44.2.64.34-.44-.63-.98-1.08-1.64-1.34-.88-.35-1.81-.29-2.78.18-1.16.56-1.89,1.35-2.19,2.37-.3,1.02-.15,2.14.44,3.37l-3.06,1.48c.13.42.28.84.48,1.25l3.59-1.73c-.59-1.23-.74-2.35-.44-3.37.3-1.02,1.03-1.81,2.19-2.37.97-.47,1.9-.53,2.78-.18Z"/>
    <polygon class="cls-6" points="394.1 530.58 394.9 532.24 380.87 539.01 381.46 540.21 395.9 533.24 394.52 530.38 394.1 530.58"/>
    <path class="cls-6" d="M372.02,528.88c-1.01-2.53-2.22-4.38-3.61-5.57.98,1.15,1.84,2.67,2.61,4.57l1.49,3.85c1.24,3.2,1.58,5.84,1.01,7.93-.57,2.09-2.07,3.61-4.51,4.56-2.4.93-4.52.84-6.35-.27-.34-.21-.67-.46-.99-.73.62.72,1.28,1.31,1.99,1.73,1.83,1.11,3.95,1.2,6.35.27,2.44-.95,3.95-2.47,4.51-4.56.57-2.09.23-4.73-1.01-7.93l-1.49-3.85Z"/>
    <path class="cls-6" d="M190.5,531.55c.31.12.58.26.82.4-.31-.58-.9-1.05-1.82-1.4-1.5-.58-2.88-.33-4.13.75l-4.52,11.78-2.51-.96-.21.54,3.72,1.43,4.52-11.78c1.25-1.07,2.63-1.32,4.13-.75Z"/>
    <path class="cls-6" d="M194.81,529.98c1.07,1.46,1.14,3.45.21,5.98l-4.2,10.94-2.51-.96-.21.54,3.72,1.43,4.2-10.94c1.16-3.17.75-5.5-1.21-6.98Z"/>
    <path class="cls-6" d="M158.98,519.56c1.22.15,2.31,0,3.26-.46.95-.46,1.7-1.17,2.24-2.11,1.07-1.85,1.27-3.6.59-5.24-.41-.99-1.12-1.92-2.13-2.8.49.58.87,1.18,1.13,1.8.68,1.64.48,3.39-.59,5.24-.55.95-1.29,1.65-2.24,2.11-.95.46-2.03.62-3.26.46.94.95,1.47,2.02,1.6,3.21.13,1.19-.15,2.37-.83,3.54-1.12,1.94-2.6,3.07-4.45,3.39-1.85.32-3.93-.19-6.24-1.53l-6.35-3.67-.18.32,7.53,4.35c2.32,1.34,4.4,1.85,6.24,1.53,1.84-.32,3.33-1.45,4.45-3.39.68-1.17.95-2.35.83-3.54-.13-1.19-.66-2.26-1.6-3.21Z"/>
    <polygon class="cls-6" points="272.17 561.21 269.21 561.15 269.19 562.13 273.17 562.21 273.56 544.49 272.54 544.47 272.17 561.21"/>
    <polygon class="cls-6" points="216.1 536.84 214.33 536.31 206.67 541.03 210.69 553.03 207.03 551.93 207.28 552.71 211.69 554.03 207.67 542.03 216.1 536.84"/>
    <path class="cls-6" d="M169.57,536.43c-1.71.65-3.4.58-5.05-.2-.57-.27-1.06-.6-1.5-.95.62.79,1.44,1.45,2.5,1.95,1.24.59,2.5.78,3.77.56.03-.35.13-.8.28-1.35Z"/>
    <path class="cls-6" d="M178.69,524.86c-.39-.86-1.01-1.6-1.8-2.26.32.4.6.81.8,1.26.67,1.47.61,3.07-.17,4.79l-3.43,7.23c-.68,1.44-1.03,2.69-1.03,3.74l-.12.25-2.64-1.25c-.03.19-.04.37-.04.51l3.67,1.74.12-.25c0-1.05.35-2.3,1.03-3.74l3.43-7.23c.78-1.72.84-3.32.17-4.79Z"/>
    <polygon class="cls-6" points="203.42 542.92 201.2 544.15 199.54 549.69 196.92 548.91 196.73 549.55 200.54 550.69 202.2 545.15 203.85 544.23 203.42 542.92"/>
    <path class="cls-6" d="M223.86,554.28c-1.52,1.02-3.18,1.33-4.97.94-1.12-.25-2.05-.69-2.81-1.3.88,1.16,2.14,1.93,3.81,2.3,1.43.31,2.77.17,4.03-.41-.07-.36-.09-.87-.06-1.52Z"/>
    <polygon class="cls-6" points="258.57 560.66 255.86 560.46 256.12 561.41 259.57 561.66 266.99 544.43 265.61 544.33 258.57 560.66"/>
    <path class="cls-6" d="M246.83,543.48c.85,1.12,1.17,2.4.96,3.85l-2.97-.43c.05.27.07.56.03.86l3.94.57c.24-1.65-.21-3.09-1.36-4.32-.18-.2-.4-.36-.6-.53Z"/>
    <path class="cls-6" d="M246.07,551.35c.2.26.37.52.5.8.33.72.43,1.55.29,2.49-.23,1.58-1.07,2.76-2.52,3.55s-3.23,1.03-5.35.73c-1.44-.21-2.68-.65-3.73-1.33-.22-.14-.42-.3-.62-.45.44.54.97,1.03,1.62,1.45,1.05.68,2.29,1.12,3.73,1.33,2.12.31,3.9.06,5.35-.73s2.29-1.97,2.52-3.55c.14-.94.04-1.77-.29-2.49-.3-.65-.81-1.25-1.5-1.8Z"/>
    <path class="cls-6" d="M228.95,540.2s0,0,0,0c.98,1.28,1.28,2.85.91,4.71l-1.72,7.81c-.34,1.56-.4,2.85-.16,3.87l-.06.27-3.07-.67c.01.33.04.6.1.8l3.97.87.06-.27c-.23-1.02-.18-2.32.16-3.87l1.72-7.81c.37-1.85.07-3.42-.91-4.71-.29-.37-.63-.7-1.01-1.01Z"/>
  </g>
</svg>